<?xml version="1.0" encoding="utf-8" standalone="no"?>
<!DOCTYPE svg PUBLIC "-//W3C//DTD SVG 1.1//EN"
  "http://www.w3.org/Graphics/SVG/1.1/DTD/svg11.dtd">
<svg xmlns:xlink="http://www.w3.org/1999/xlink" width="370.885469pt" height="225.719062pt" viewBox="0 0 370.885469 225.719062" xmlns="http://www.w3.org/2000/svg" version="1.1">
 <metadata>
  <rdf:RDF xmlns:dc="http://purl.org/dc/elements/1.1/" xmlns:cc="http://creativecommons.org/ns#" xmlns:rdf="http://www.w3.org/1999/02/22-rdf-syntax-ns#">
   <cc:Work>
    <dc:type rdf:resource="http://purl.org/dc/dcmitype/StillImage"/>
    <dc:date>2026-10-10T12:06:56.028476</dc:date>
    <dc:format>image/svg+xml</dc:format>
    <dc:creator>
     <cc:Agent>
      <dc:title>Matplotlib v3.11.2, https://matplotlib.org/</dc:title>
     </cc:Agent>
    </dc:creator>
   </cc:Work>
  </rdf:RDF>
 </metadata>
 <defs>
  <style type="text/css">*{stroke-linejoin: round; stroke-linecap: butt}</style>
 </defs>
 <g id="figure_1">
  <g id="patch_1">
   <path d="M 0 225.719062
L 370.885469 225.719062
L 370.885469 0
L 0 0
z
" style="fill: #ffffff"/>
  </g>
  <g id="axes_1">
   <g id="patch_2">
    <path d="M 44.365469 188.958281
L 365.125469 188.958281
L 365.125469 20.118281
L 44.365469 20.118281
z
" style="fill: #ffffff"/>
   </g>
   <g id="matplotlib.axis_1">
    <g id="xtick_1">
     <g id="line2d_1">
      <defs>
       <path id="mdc41f1780a" d="M 0 0
L 0 3.5
" style="stroke: #253746; stroke-width: 0.8"/>
      </defs>
      <g>
       <use xlink:href="#mdc41f1780a" x="58.945469" y="188.958281" style="fill: #253746; stroke: #253746; stroke-width: 0.8"/>
      </g>
     </g>
     <g id="text_1">
      <text style="font-size: 10px; font-family: 'DejaVu Sans'; text-anchor: middle; fill: #253746" x="58.945469" y="203.555937" transform="rotate(-0 58.945469 203.555937)">0</text>
     </g>
    </g>
    <g id="xtick_2">
     <g id="line2d_2">
      <g>
       <use xlink:href="#mdc41f1780a" x="117.265469" y="188.958281" style="fill: #253746; stroke: #253746; stroke-width: 0.8"/>
      </g>
     </g>
     <g id="text_2">
      <text style="font-size: 10px; font-family: 'DejaVu Sans'; text-anchor: middle; fill: #253746" x="117.265469" y="203.555937" transform="rotate(-0 117.265469 203.555937)">1</text>
     </g>
    </g>
    <g id="xtick_3">
     <g id="line2d_3">
      <g>
       <use xlink:href="#mdc41f1780a" x="233.905469" y="188.958281" style="fill: #253746; stroke: #253746; stroke-width: 0.8"/>
      </g>
     </g>
     <g id="text_3">
      <text style="font-size: 10px; font-family: 'DejaVu Sans'; text-anchor: middle; fill: #253746" x="233.905469" y="203.555937" transform="rotate(-0 233.905469 203.555937)">3</text>
     </g>
    </g>
    <g id="xtick_4">
     <g id="line2d_4">
      <g>
       <use xlink:href="#mdc41f1780a" x="350.545469" y="188.958281" style="fill: #253746; stroke: #253746; stroke-width: 0.8"/>
      </g>
     </g>
     <g id="text_4">
      <text style="font-size: 10px; font-family: 'DejaVu Sans'; text-anchor: middle; fill: #253746" x="350.545469" y="203.555937" transform="rotate(-0 350.545469 203.555937)">5</text>
     </g>
    </g>
    <g id="text_5">
     <text style="font-size: 10px; font-family: 'DejaVu Sans'; text-anchor: middle; fill: #253746" x="204.745469" y="217.556719" transform="rotate(-0 204.745469 217.556719)">Designated DOC observations per station</text>
    </g>
   </g>
   <g id="matplotlib.axis_2">
    <g id="ytick_1">
     <g id="line2d_5">
      <defs>
       <path id="mddf8fae14b" d="M 0 0
L -3.5 0
" style="stroke: #253746; stroke-width: 0.8"/>
      </defs>
      <g>
       <use xlink:href="#mddf8fae14b" x="44.365469" y="178.981841" style="fill: #253746; stroke: #253746; stroke-width: 0.8"/>
      </g>
     </g>
     <g id="text_6">
      <text style="font-size: 10px; font-family: 'DejaVu Sans'; text-anchor: end; fill: #253746" x="37.365469" y="182.780669" transform="rotate(-0 37.365469 182.780669)">1.9</text>
     </g>
    </g>
    <g id="ytick_2">
     <g id="line2d_6">
      <g>
       <use xlink:href="#mddf8fae14b" x="44.365469" y="146.076956" style="fill: #253746; stroke: #253746; stroke-width: 0.8"/>
      </g>
     </g>
     <g id="text_7">
      <text style="font-size: 10px; font-family: 'DejaVu Sans'; text-anchor: end; fill: #253746" x="37.365469" y="149.875784" transform="rotate(-0 37.365469 149.875784)">2.0</text>
     </g>
    </g>
    <g id="ytick_3">
     <g id="line2d_7">
      <g>
       <use xlink:href="#mddf8fae14b" x="44.365469" y="113.172072" style="fill: #253746; stroke: #253746; stroke-width: 0.8"/>
      </g>
     </g>
     <g id="text_8">
      <text style="font-size: 10px; font-family: 'DejaVu Sans'; text-anchor: end; fill: #253746" x="37.365469" y="116.9709" transform="rotate(-0 37.365469 116.9709)">2.1</text>
     </g>
    </g>
    <g id="ytick_4">
     <g id="line2d_8">
      <g>
       <use xlink:href="#mddf8fae14b" x="44.365469" y="80.267188" style="fill: #253746; stroke: #253746; stroke-width: 0.8"/>
      </g>
     </g>
     <g id="text_9">
      <text style="font-size: 10px; font-family: 'DejaVu Sans'; text-anchor: end; fill: #253746" x="37.365469" y="84.066016" transform="rotate(-0 37.365469 84.066016)">2.2</text>
     </g>
    </g>
    <g id="ytick_5">
     <g id="line2d_9">
      <g>
       <use xlink:href="#mddf8fae14b" x="44.365469" y="47.362303" style="fill: #253746; stroke: #253746; stroke-width: 0.8"/>
      </g>
     </g>
     <g id="text_10">
      <text style="font-size: 10px; font-family: 'DejaVu Sans'; text-anchor: end; fill: #253746" x="37.365469" y="51.161131" transform="rotate(-0 37.365469 51.161131)">2.3</text>
     </g>
    </g>
    <g id="text_11">
     <!-- MAE (mg L$^{-1}$) -->
     <g style="fill: #253746" transform="translate(15.06 138.688281) rotate(-90)">
      <text>
       <tspan x="0" y="-0.762187" style="font-size: 10px; font-family: 'DejaVu Sans'; fill: #253746">M</tspan>
       <tspan x="8.62793" y="-0.762187" style="font-size: 10px; font-family: 'DejaVu Sans'; fill: #253746">A</tspan>
       <tspan x="15.46875" y="-0.762187" style="font-size: 10px; font-family: 'DejaVu Sans'; fill: #253746">E</tspan>
       <tspan x="21.787109" y="-0.762187" style="font-size: 10px; font-family: 'DejaVu Sans'; fill: #253746"> </tspan>
       <tspan x="24.96582" y="-0.762187" style="font-size: 10px; font-family: 'DejaVu Sans'; fill: #253746">(</tspan>
       <tspan x="28.867188" y="-0.762187" style="font-size: 10px; font-family: 'DejaVu Sans'; fill: #253746">m</tspan>
       <tspan x="38.608398" y="-0.762187" style="font-size: 10px; font-family: 'DejaVu Sans'; fill: #253746">g</tspan>
       <tspan x="44.956055" y="-0.762187" style="font-size: 10px; font-family: 'DejaVu Sans'; fill: #253746"> </tspan>
       <tspan x="48.134766" y="-0.762187" style="font-size: 10px; font-family: 'DejaVu Sans'; fill: #253746">L</tspan>
       <tspan x="64.394043" y="-0.762187" style="font-size: 10px; font-family: 'DejaVu Sans'; fill: #253746">)</tspan>
       <tspan x="53.801758" y="-4.892187" style="font-size: 7px; font-family: 'DejaVu Sans'; fill: #253746">−</tspan>
       <tspan x="59.666992" y="-4.892187" style="font-size: 7px; font-family: 'DejaVu Sans'; fill: #253746">1</tspan>
      </text>
     </g>
    </g>
   </g>
   <g id="line2d_10">
    <path d="M 58.945469 27.792827
L 117.265469 86.29669
L 233.905469 149.448442
L 350.545469 177.184091
" clip-path="url(#p6f65c93746)" style="fill: none; stroke: #71838d; stroke-width: 1.5; stroke-linecap: square"/>
    <defs>
     <path id="m7f3e3a7e23" d="M 0 3
C 0.795609 3 1.55874 2.683901 2.12132 2.12132
C 2.683901 1.55874 3 0.795609 3 0
C 3 -0.795609 2.683901 -1.55874 2.12132 -2.12132
C 1.55874 -2.683901 0.795609 -3 0 -3
C -0.795609 -3 -1.55874 -2.683901 -2.12132 -2.12132
C -2.683901 -1.55874 -3 -0.795609 -3 0
C -3 0.795609 -2.683901 1.55874 -2.12132 2.12132
C -1.55874 2.683901 -0.795609 3 0 3
z
" style="stroke: #71838d"/>
    </defs>
    <g clip-path="url(#p6f65c93746)">
     <use xlink:href="#m7f3e3a7e23" x="58.945469" y="27.792827" style="fill: #71838d; stroke: #71838d"/>
     <use xlink:href="#m7f3e3a7e23" x="117.265469" y="86.29669" style="fill: #71838d; stroke: #71838d"/>
     <use xlink:href="#m7f3e3a7e23" x="233.905469" y="149.448442" style="fill: #71838d; stroke: #71838d"/>
     <use xlink:href="#m7f3e3a7e23" x="350.545469" y="177.184091" style="fill: #71838d; stroke: #71838d"/>
    </g>
   </g>
   <g id="line2d_11">
    <path d="M 58.945469 48.51576
L 117.265469 93.278095
L 233.905469 150.043271
L 350.545469 175.760397
" clip-path="url(#p6f65c93746)" style="fill: none; stroke: #c3a56b; stroke-width: 1.5; stroke-linecap: square"/>
    <defs>
     <path id="m873f2f9b80" d="M 0 3
C 0.795609 3 1.55874 2.683901 2.12132 2.12132
C 2.683901 1.55874 3 0.795609 3 0
C 3 -0.795609 2.683901 -1.55874 2.12132 -2.12132
C 1.55874 -2.683901 0.795609 -3 0 -3
C -0.795609 -3 -1.55874 -2.683901 -2.12132 -2.12132
C -2.683901 -1.55874 -3 -0.795609 -3 0
C -3 0.795609 -2.683901 1.55874 -2.12132 2.12132
C -1.55874 2.683901 -0.795609 3 0 3
z
" style="stroke: #c3a56b"/>
    </defs>
    <g clip-path="url(#p6f65c93746)">
     <use xlink:href="#m873f2f9b80" x="58.945469" y="48.51576" style="fill: #c3a56b; stroke: #c3a56b"/>
     <use xlink:href="#m873f2f9b80" x="117.265469" y="93.278095" style="fill: #c3a56b; stroke: #c3a56b"/>
     <use xlink:href="#m873f2f9b80" x="233.905469" y="150.043271" style="fill: #c3a56b; stroke: #c3a56b"/>
     <use xlink:href="#m873f2f9b80" x="350.545469" y="175.760397" style="fill: #c3a56b; stroke: #c3a56b"/>
    </g>
   </g>
   <g id="line2d_12">
    <path d="M 58.945469 60.109881
L 117.265469 96.840566
L 233.905469 151.681463
L 350.545469 181.283736
" clip-path="url(#p6f65c93746)" style="fill: none; stroke: #247f83; stroke-width: 1.5; stroke-linecap: square"/>
    <defs>
     <path id="m3c3212c7d0" d="M 0 3
C 0.795609 3 1.55874 2.683901 2.12132 2.12132
C 2.683901 1.55874 3 0.795609 3 0
C 3 -0.795609 2.683901 -1.55874 2.12132 -2.12132
C 1.55874 -2.683901 0.795609 -3 0 -3
C -0.795609 -3 -1.55874 -2.683901 -2.12132 -2.12132
C -2.683901 -1.55874 -3 -0.795609 -3 0
C -3 0.795609 -2.683901 1.55874 -2.12132 2.12132
C -1.55874 2.683901 -0.795609 3 0 3
z
" style="stroke: #247f83"/>
    </defs>
    <g clip-path="url(#p6f65c93746)">
     <use xlink:href="#m3c3212c7d0" x="58.945469" y="60.109881" style="fill: #247f83; stroke: #247f83"/>
     <use xlink:href="#m3c3212c7d0" x="117.265469" y="96.840566" style="fill: #247f83; stroke: #247f83"/>
     <use xlink:href="#m3c3212c7d0" x="233.905469" y="151.681463" style="fill: #247f83; stroke: #247f83"/>
     <use xlink:href="#m3c3212c7d0" x="350.545469" y="181.283736" style="fill: #247f83; stroke: #247f83"/>
    </g>
   </g>
   <g id="patch_3">
    <path d="M 44.365469 188.958281
L 44.365469 20.118281
" style="fill: none; stroke: #88939d; stroke-width: 0.8; stroke-linejoin: miter; stroke-linecap: square"/>
   </g>
   <g id="patch_4">
    <path d="M 44.365469 188.958281
L 365.125469 188.958281
" style="fill: none; stroke: #88939d; stroke-width: 0.8; stroke-linejoin: miter; stroke-linecap: square"/>
   </g>
   <g id="text_12">
    <text style="font-size: 11px; font-family: 'DejaVu Sans'; text-anchor: middle; fill: #253746" x="204.745469" y="14.118281" transform="rotate(-0 204.745469 14.118281)">Internal fixed-query adaptation</text>
   </g>
   <g id="legend_1">
    <g id="line2d_13">
     <path d="M 248.890469 31.906875
L 257.890469 31.906875
L 266.890469 31.906875
" style="fill: none; stroke: #71838d; stroke-width: 1.5; stroke-linecap: square"/>
     <g>
      <use xlink:href="#m7f3e3a7e23" x="257.890469" y="31.906875" style="fill: #71838d; stroke: #71838d"/>
     </g>
    </g>
    <g id="text_13">
     <text style="font-size: 9px; font-family: 'DejaVu Sans'; text-anchor: start; fill: #253746" x="274.090469" y="35.056875" transform="rotate(-0 274.090469 35.056875)">Strong trees</text>
    </g>
    <g id="line2d_14">
     <path d="M 248.890469 45.407578
L 257.890469 45.407578
L 266.890469 45.407578
" style="fill: none; stroke: #c3a56b; stroke-width: 1.5; stroke-linecap: square"/>
     <g>
      <use xlink:href="#m873f2f9b80" x="257.890469" y="45.407578" style="fill: #c3a56b; stroke: #c3a56b"/>
     </g>
    </g>
    <g id="text_14">
     <text style="font-size: 9px; font-family: 'DejaVu Sans'; text-anchor: start; fill: #253746" x="274.090469" y="48.557578" transform="rotate(-0 274.090469 48.557578)">Previous complete</text>
    </g>
    <g id="line2d_15">
     <path d="M 248.890469 58.908281
L 257.890469 58.908281
L 266.890469 58.908281
" style="fill: none; stroke: #247f83; stroke-width: 1.5; stroke-linecap: square"/>
     <g>
      <use xlink:href="#m3c3212c7d0" x="257.890469" y="58.908281" style="fill: #247f83; stroke: #247f83"/>
     </g>
    </g>
    <g id="text_15">
     <text style="font-size: 9px; font-family: 'DejaVu Sans'; text-anchor: start; fill: #253746" x="274.090469" y="62.058281" transform="rotate(-0 274.090469 62.058281)">Current complete</text>
    </g>
   </g>
  </g>
 </g>
 <defs>
  <clipPath id="p6f65c93746">
   <rect x="44.365469" y="20.118281" width="320.76" height="168.84"/>
  </clipPath>
 </defs>
</svg>
