<?xml version="1.0" encoding="utf-8" standalone="no"?>
<!DOCTYPE svg PUBLIC "-//W3C//DTD SVG 1.1//EN"
  "http://www.w3.org/Graphics/SVG/1.1/DTD/svg11.dtd">
<svg xmlns:xlink="http://www.w3.org/1999/xlink" width="1080pt" height="482.4pt" viewBox="0 0 1080 482.4" xmlns="http://www.w3.org/2000/svg" version="1.1">
 <metadata>
  <rdf:RDF xmlns:dc="http://purl.org/dc/elements/1.1/" xmlns:cc="http://creativecommons.org/ns#" xmlns:rdf="http://www.w3.org/1999/02/22-rdf-syntax-ns#">
   <cc:Work>
    <dc:type rdf:resource="http://purl.org/dc/dcmitype/StillImage"/>
    <dc:date>2026-10-09T14:16:37.867555</dc:date>
    <dc:format>image/svg+xml</dc:format>
    <dc:creator>
     <cc:Agent>
      <dc:title>Matplotlib v3.11.2, https://matplotlib.org/</dc:title>
     </cc:Agent>
    </dc:creator>
   </cc:Work>
  </rdf:RDF>
 </metadata>
 <defs>
  <style type="text/css">*{stroke-linejoin: round; stroke-linecap: butt}</style>
 </defs>
 <g id="figure_1">
  <g id="patch_1">
   <path d="M 0 482.4 
L 1080 482.4 
L 1080 0 
L 0 0 
z
" style="fill: #ffffff"/>
  </g>
  <g id="axes_1">
   <g id="patch_2">
    <path d="M 75.6 361.8 
L 335.383784 361.8 
L 335.383784 135.072 
L 75.6 135.072 
z
" style="fill: #ffffff"/>
   </g>
   <g id="matplotlib.axis_1">
    <g id="xtick_1">
     <g id="line2d_1">
      <defs>
       <path id="m5efe633de0" d="M 0 0 
L 0 3.5 
" style="stroke: #000000; stroke-width: 0.8"/>
      </defs>
      <g>
       <use xlink:href="#m5efe633de0" x="106.980211" y="361.8" style="stroke: #000000; stroke-width: 0.8"/>
      </g>
     </g>
     <g id="text_1">
      <text style="font-size: 10px; font-family: 'Arial Unicode MS'; text-anchor: middle" x="106.980211" y="376.080273" transform="rotate(-0 106.980211 376.080273)">0</text>
     </g>
    </g>
    <g id="xtick_2">
     <g id="line2d_2">
      <g>
       <use xlink:href="#m5efe633de0" x="159.17183" y="361.8" style="stroke: #000000; stroke-width: 0.8"/>
      </g>
     </g>
     <g id="text_2">
      <text style="font-size: 10px; font-family: 'Arial Unicode MS'; text-anchor: middle" x="159.17183" y="376.080273" transform="rotate(-0 159.17183 376.080273)">10</text>
     </g>
    </g>
    <g id="xtick_3">
     <g id="line2d_3">
      <g>
       <use xlink:href="#m5efe633de0" x="211.363449" y="361.8" style="stroke: #000000; stroke-width: 0.8"/>
      </g>
     </g>
     <g id="text_3">
      <text style="font-size: 10px; font-family: 'Arial Unicode MS'; text-anchor: middle" x="211.363449" y="376.080273" transform="rotate(-0 211.363449 376.080273)">20</text>
     </g>
    </g>
    <g id="xtick_4">
     <g id="line2d_4">
      <g>
       <use xlink:href="#m5efe633de0" x="263.555068" y="361.8" style="stroke: #000000; stroke-width: 0.8"/>
      </g>
     </g>
     <g id="text_4">
      <text style="font-size: 10px; font-family: 'Arial Unicode MS'; text-anchor: middle" x="263.555068" y="376.080273" transform="rotate(-0 263.555068 376.080273)">30</text>
     </g>
    </g>
    <g id="xtick_5">
     <g id="line2d_5">
      <g>
       <use xlink:href="#m5efe633de0" x="315.746687" y="361.8" style="stroke: #000000; stroke-width: 0.8"/>
      </g>
     </g>
     <g id="text_5">
      <text style="font-size: 10px; font-family: 'Arial Unicode MS'; text-anchor: middle" x="315.746687" y="376.080273" transform="rotate(-0 315.746687 376.080273)">40</text>
     </g>
    </g>
    <g id="text_6">
     <text style="font-size: 10px; font-family: 'Arial Unicode MS'; text-anchor: middle; fill: #344f5a" x="205.491892" y="390.57832" transform="rotate(-0 205.491892 390.57832)">DOC 峰减去流量峰（小时）</text>
    </g>
   </g>
   <g id="matplotlib.axis_2">
    <g id="ytick_1">
     <g id="line2d_6">
      <defs>
       <path id="mb4dab8e6a9" d="M 0 0 
L -3.5 0 
" style="stroke: #000000; stroke-width: 0.8"/>
      </defs>
      <g>
       <use xlink:href="#mb4dab8e6a9" x="75.6" y="361.8" style="stroke: #000000; stroke-width: 0.8"/>
      </g>
     </g>
     <g id="text_7">
      <text style="font-size: 10px; font-family: 'Arial Unicode MS'; text-anchor: end" x="68.6" y="365.440137" transform="rotate(-0 68.6 365.440137)">0.0</text>
     </g>
    </g>
    <g id="ytick_2">
     <g id="line2d_7">
      <g>
       <use xlink:href="#mb4dab8e6a9" x="75.6" y="318.198462" style="stroke: #000000; stroke-width: 0.8"/>
      </g>
     </g>
     <g id="text_8">
      <text style="font-size: 10px; font-family: 'Arial Unicode MS'; text-anchor: end" x="68.6" y="321.838598" transform="rotate(-0 68.6 321.838598)">0.2</text>
     </g>
    </g>
    <g id="ytick_3">
     <g id="line2d_8">
      <g>
       <use xlink:href="#mb4dab8e6a9" x="75.6" y="274.596923" style="stroke: #000000; stroke-width: 0.8"/>
      </g>
     </g>
     <g id="text_9">
      <text style="font-size: 10px; font-family: 'Arial Unicode MS'; text-anchor: end" x="68.6" y="278.23706" transform="rotate(-0 68.6 278.23706)">0.4</text>
     </g>
    </g>
    <g id="ytick_4">
     <g id="line2d_9">
      <g>
       <use xlink:href="#mb4dab8e6a9" x="75.6" y="230.995385" style="stroke: #000000; stroke-width: 0.8"/>
      </g>
     </g>
     <g id="text_10">
      <text style="font-size: 10px; font-family: 'Arial Unicode MS'; text-anchor: end" x="68.6" y="234.635521" transform="rotate(-0 68.6 234.635521)">0.6</text>
     </g>
    </g>
    <g id="ytick_5">
     <g id="line2d_10">
      <g>
       <use xlink:href="#mb4dab8e6a9" x="75.6" y="187.393846" style="stroke: #000000; stroke-width: 0.8"/>
      </g>
     </g>
     <g id="text_11">
      <text style="font-size: 10px; font-family: 'Arial Unicode MS'; text-anchor: end" x="68.6" y="191.033983" transform="rotate(-0 68.6 191.033983)">0.8</text>
     </g>
    </g>
    <g id="ytick_6">
     <g id="line2d_11">
      <g>
       <use xlink:href="#mb4dab8e6a9" x="75.6" y="143.792308" style="stroke: #000000; stroke-width: 0.8"/>
      </g>
     </g>
     <g id="text_12">
      <text style="font-size: 10px; font-family: 'Arial Unicode MS'; text-anchor: end" x="68.6" y="147.432444" transform="rotate(-0 68.6 147.432444)">1.0</text>
     </g>
    </g>
    <g id="text_13">
     <text style="font-size: 10px; font-family: 'Arial Unicode MS'; text-anchor: middle; fill: #344f5a" x="48.600391" y="248.436" transform="rotate(-90 48.600391 248.436)">累计事件比例</text>
    </g>
   </g>
   <g id="line2d_12">
    <path d="M 87.408354 358.104954 
L 100.456259 358.104954 
L 100.456259 354.409909 
L 103.06584 354.409909 
L 103.06584 350.714863 
L 106.980211 350.714863 
L 106.980211 347.019817 
L 108.285001 347.019817 
L 108.285001 343.324772 
L 109.589792 343.324772 
L 109.589792 339.629726 
L 110.894582 339.629726 
L 110.894582 335.934681 
L 112.199373 335.934681 
L 112.199373 332.239635 
L 112.199373 332.239635 
L 112.199373 328.544589 
L 112.199373 328.544589 
L 112.199373 324.849544 
L 112.199373 324.849544 
L 112.199373 321.154498 
L 112.199373 321.154498 
L 112.199373 317.459452 
L 113.504163 317.459452 
L 113.504163 313.764407 
L 113.504163 313.764407 
L 113.504163 310.069361 
L 114.808954 310.069361 
L 114.808954 306.374316 
L 114.808954 306.374316 
L 114.808954 302.67927 
L 114.808954 302.67927 
L 114.808954 298.984224 
L 114.808954 298.984224 
L 114.808954 295.289179 
L 114.808954 295.289179 
L 114.808954 291.594133 
L 114.808954 291.594133 
L 114.808954 287.899087 
L 114.808954 287.899087 
L 114.808954 284.204042 
L 114.808954 284.204042 
L 114.808954 280.508996 
L 116.113744 280.508996 
L 116.113744 276.81395 
L 116.113744 276.81395 
L 116.113744 273.118905 
L 116.113744 273.118905 
L 116.113744 269.423859 
L 116.113744 269.423859 
L 116.113744 265.728814 
L 116.113744 265.728814 
L 116.113744 262.033768 
L 116.113744 262.033768 
L 116.113744 258.338722 
L 116.113744 258.338722 
L 116.113744 254.643677 
L 116.113744 254.643677 
L 116.113744 250.948631 
L 116.113744 250.948631 
L 116.113744 247.253585 
L 117.418535 247.253585 
L 117.418535 243.55854 
L 117.418535 243.55854 
L 117.418535 239.863494 
L 117.418535 239.863494 
L 117.418535 236.168449 
L 117.418535 236.168449 
L 117.418535 232.473403 
L 117.418535 232.473403 
L 117.418535 228.778357 
L 117.418535 228.778357 
L 117.418535 225.083312 
L 117.418535 225.083312 
L 117.418535 221.388266 
L 118.723325 221.388266 
L 118.723325 217.69322 
L 118.723325 217.69322 
L 118.723325 213.998175 
L 118.723325 213.998175 
L 118.723325 210.303129 
L 118.723325 210.303129 
L 118.723325 206.608083 
L 118.723325 206.608083 
L 118.723325 202.913038 
L 118.723325 202.913038 
L 118.723325 199.217992 
L 118.723325 199.217992 
L 118.723325 195.522947 
L 120.028116 195.522947 
L 120.028116 191.827901 
L 120.028116 191.827901 
L 120.028116 188.132855 
L 120.028116 188.132855 
L 120.028116 184.43781 
L 120.028116 184.43781 
L 120.028116 180.742764 
L 121.332906 180.742764 
L 121.332906 177.047718 
L 121.332906 177.047718 
L 121.332906 173.352673 
L 125.247278 173.352673 
L 125.247278 169.657627 
L 125.247278 169.657627 
L 125.247278 165.962581 
L 129.161649 165.962581 
L 129.161649 162.267536 
L 131.77123 162.267536 
L 131.77123 158.57249 
L 133.07602 158.57249 
L 133.07602 154.877445 
L 133.07602 154.877445 
L 133.07602 151.182399 
L 136.990392 151.182399 
L 136.990392 147.487353 
L 323.57543 147.487353 
L 323.57543 143.792308 
" clip-path="url(#p7496978c66)" style="fill: none; stroke: #297b8b; stroke-width: 2; stroke-linecap: square"/>
   </g>
   <g id="line2d_13">
    <path d="M 106.980211 361.8 
L 106.980211 135.072 
" clip-path="url(#p7496978c66)" style="fill: none; stroke-dasharray: 3.7,1.6; stroke-dashoffset: 0; stroke: #bac3c7"/>
   </g>
   <g id="patch_3">
    <path d="M 75.6 361.8 
L 75.6 135.072 
" style="fill: none; stroke: #000000; stroke-width: 0.8; stroke-linejoin: miter; stroke-linecap: square"/>
   </g>
   <g id="patch_4">
    <path d="M 75.6 361.8 
L 335.383784 361.8 
" style="fill: none; stroke: #000000; stroke-width: 0.8; stroke-linejoin: miter; stroke-linecap: square"/>
   </g>
   <g id="text_14">
    <text style="font-size: 9px; font-family: 'Arial Unicode MS'; fill: #344f5a" transform="translate(253.672639 308.66995)">中位延迟 1.75 小时</text>
    <text style="font-size: 9px; font-family: 'Arial Unicode MS'; fill: #344f5a" transform="translate(193.144827 319.207684)">月分组 95% 区间：1.50–2.12 小时</text>
    <text style="font-size: 9px; font-family: 'Arial Unicode MS'; fill: #344f5a" transform="translate(217.167796 329.84245)">55/59 次 DOC 峰晚于流量峰</text>
   </g>
   <g id="text_15">
    <text style="font-size: 10px; font-family: 'Arial Unicode MS'; text-anchor: start; fill: #344f5a" x="75.6" y="129.072" transform="rotate(-0 75.6 129.072)">a  峰值延迟（全部 59 次）</text>
   </g>
  </g>
  <g id="axes_2">
   <g id="patch_5">
    <path d="M 426.308108 361.8 
L 686.091892 361.8 
L 686.091892 135.072 
L 426.308108 135.072 
z
" style="fill: #ffffff"/>
   </g>
   <g id="PathCollection_1">
    <defs>
     <path id="m9d74ffef5d" d="M 0 2.738613 
C 0.726289 2.738613 1.422928 2.450055 1.936492 1.936492 
C 2.450055 1.422928 2.738613 0.726289 2.738613 0 
C 2.738613 -0.726289 2.450055 -1.422928 1.936492 -1.936492 
C 1.422928 -2.450055 0.726289 -2.738613 0 -2.738613 
C -0.726289 -2.738613 -1.422928 -2.450055 -1.936492 -1.936492 
C -2.450055 -1.422928 -2.738613 -0.726289 -2.738613 0 
C -2.738613 0.726289 -2.450055 1.422928 -1.936492 1.936492 
C -1.422928 2.450055 -0.726289 2.738613 0 2.738613 
z
" style="stroke: #ffffff; stroke-opacity: 0.7; stroke-width: 0.4"/>
    </defs>
    <g clip-path="url(#p2dd75faec4)">
     <use xlink:href="#m9d74ffef5d" x="474.428368" y="266.351654" style="fill: #297b8b; fill-opacity: 0.7; stroke: #ffffff; stroke-opacity: 0.7; stroke-width: 0.4"/>
     <use xlink:href="#m9d74ffef5d" x="509.42492" y="252.988886" style="fill: #297b8b; fill-opacity: 0.7; stroke: #ffffff; stroke-opacity: 0.7; stroke-width: 0.4"/>
     <use xlink:href="#m9d74ffef5d" x="505.050351" y="205.264713" style="fill: #297b8b; fill-opacity: 0.7; stroke: #ffffff; stroke-opacity: 0.7; stroke-width: 0.4"/>
     <use xlink:href="#m9d74ffef5d" x="476.615652" y="289.259257" style="fill: #297b8b; fill-opacity: 0.7; stroke: #ffffff; stroke-opacity: 0.7; stroke-width: 0.4"/>
     <use xlink:href="#m9d74ffef5d" x="474.428368" y="243.444052" style="fill: #297b8b; fill-opacity: 0.7; stroke: #ffffff; stroke-opacity: 0.7; stroke-width: 0.4"/>
     <use xlink:href="#m9d74ffef5d" x="478.802937" y="256.80682" style="fill: #297b8b; fill-opacity: 0.7; stroke: #ffffff; stroke-opacity: 0.7; stroke-width: 0.4"/>
     <use xlink:href="#m9d74ffef5d" x="478.802937" y="273.987522" style="fill: #297b8b; fill-opacity: 0.7; stroke: #ffffff; stroke-opacity: 0.7; stroke-width: 0.4"/>
     <use xlink:href="#m9d74ffef5d" x="474.428368" y="308.348926" style="fill: #297b8b; fill-opacity: 0.7; stroke: #ffffff; stroke-opacity: 0.7; stroke-width: 0.4"/>
     <use xlink:href="#m9d74ffef5d" x="509.42492" y="251.079919" style="fill: #297b8b; fill-opacity: 0.7; stroke: #ffffff; stroke-opacity: 0.7; stroke-width: 0.4"/>
     <use xlink:href="#m9d74ffef5d" x="480.990221" y="277.805456" style="fill: #297b8b; fill-opacity: 0.7; stroke: #ffffff; stroke-opacity: 0.7; stroke-width: 0.4"/>
     <use xlink:href="#m9d74ffef5d" x="470.053799" y="293.077191" style="fill: #297b8b; fill-opacity: 0.7; stroke: #ffffff; stroke-opacity: 0.7; stroke-width: 0.4"/>
     <use xlink:href="#m9d74ffef5d" x="470.053799" y="314.075827" style="fill: #297b8b; fill-opacity: 0.7; stroke: #ffffff; stroke-opacity: 0.7; stroke-width: 0.4"/>
     <use xlink:href="#m9d74ffef5d" x="496.301213" y="296.895125" style="fill: #297b8b; fill-opacity: 0.7; stroke: #ffffff; stroke-opacity: 0.7; stroke-width: 0.4"/>
     <use xlink:href="#m9d74ffef5d" x="535.672335" y="312.16686" style="fill: #297b8b; fill-opacity: 0.7; stroke: #ffffff; stroke-opacity: 0.7; stroke-width: 0.4"/>
     <use xlink:href="#m9d74ffef5d" x="474.428368" y="304.530993" style="fill: #297b8b; fill-opacity: 0.7; stroke: #ffffff; stroke-opacity: 0.7; stroke-width: 0.4"/>
     <use xlink:href="#m9d74ffef5d" x="463.491945" y="302.622026" style="fill: #297b8b; fill-opacity: 0.7; stroke: #ffffff; stroke-opacity: 0.7; stroke-width: 0.4"/>
     <use xlink:href="#m9d74ffef5d" x="474.428368" y="270.169588" style="fill: #297b8b; fill-opacity: 0.7; stroke: #ffffff; stroke-opacity: 0.7; stroke-width: 0.4"/>
     <use xlink:href="#m9d74ffef5d" x="461.304661" y="256.80682" style="fill: #297b8b; fill-opacity: 0.7; stroke: #ffffff; stroke-opacity: 0.7; stroke-width: 0.4"/>
     <use xlink:href="#m9d74ffef5d" x="450.368238" y="296.895125" style="fill: #297b8b; fill-opacity: 0.7; stroke: #ffffff; stroke-opacity: 0.7; stroke-width: 0.4"/>
     <use xlink:href="#m9d74ffef5d" x="485.36479" y="264.442688" style="fill: #297b8b; fill-opacity: 0.7; stroke: #ffffff; stroke-opacity: 0.7; stroke-width: 0.4"/>
     <use xlink:href="#m9d74ffef5d" x="450.368238" y="275.896489" style="fill: #297b8b; fill-opacity: 0.7; stroke: #ffffff; stroke-opacity: 0.7; stroke-width: 0.4"/>
     <use xlink:href="#m9d74ffef5d" x="454.742807" y="279.714423" style="fill: #297b8b; fill-opacity: 0.7; stroke: #ffffff; stroke-opacity: 0.7; stroke-width: 0.4"/>
     <use xlink:href="#m9d74ffef5d" x="459.117376" y="272.078555" style="fill: #297b8b; fill-opacity: 0.7; stroke: #ffffff; stroke-opacity: 0.7; stroke-width: 0.4"/>
     <use xlink:href="#m9d74ffef5d" x="480.990221" y="279.714423" style="fill: #297b8b; fill-opacity: 0.7; stroke: #ffffff; stroke-opacity: 0.7; stroke-width: 0.4"/>
     <use xlink:href="#m9d74ffef5d" x="467.866514" y="294.986158" style="fill: #297b8b; fill-opacity: 0.7; stroke: #ffffff; stroke-opacity: 0.7; stroke-width: 0.4"/>
     <use xlink:href="#m9d74ffef5d" x="480.990221" y="296.895125" style="fill: #297b8b; fill-opacity: 0.7; stroke: #ffffff; stroke-opacity: 0.7; stroke-width: 0.4"/>
     <use xlink:href="#m9d74ffef5d" x="507.237636" y="266.351654" style="fill: #297b8b; fill-opacity: 0.7; stroke: #ffffff; stroke-opacity: 0.7; stroke-width: 0.4"/>
     <use xlink:href="#m9d74ffef5d" x="472.241083" y="285.441324" style="fill: #297b8b; fill-opacity: 0.7; stroke: #ffffff; stroke-opacity: 0.7; stroke-width: 0.4"/>
     <use xlink:href="#m9d74ffef5d" x="509.42492" y="273.987522" style="fill: #297b8b; fill-opacity: 0.7; stroke: #ffffff; stroke-opacity: 0.7; stroke-width: 0.4"/>
     <use xlink:href="#m9d74ffef5d" x="515.986774" y="258.715787" style="fill: #297b8b; fill-opacity: 0.7; stroke: #ffffff; stroke-opacity: 0.7; stroke-width: 0.4"/>
     <use xlink:href="#m9d74ffef5d" x="480.990221" y="308.348926" style="fill: #297b8b; fill-opacity: 0.7; stroke: #ffffff; stroke-opacity: 0.7; stroke-width: 0.4"/>
     <use xlink:href="#m9d74ffef5d" x="555.357895" y="216.718515" style="fill: #297b8b; fill-opacity: 0.7; stroke: #ffffff; stroke-opacity: 0.7; stroke-width: 0.4"/>
     <use xlink:href="#m9d74ffef5d" x="485.36479" y="275.896489" style="fill: #297b8b; fill-opacity: 0.7; stroke: #ffffff; stroke-opacity: 0.7; stroke-width: 0.4"/>
     <use xlink:href="#m9d74ffef5d" x="575.043456" y="149.904673" style="fill: #297b8b; fill-opacity: 0.7; stroke: #ffffff; stroke-opacity: 0.7; stroke-width: 0.4"/>
     <use xlink:href="#m9d74ffef5d" x="467.866514" y="231.99025" style="fill: #297b8b; fill-opacity: 0.7; stroke: #ffffff; stroke-opacity: 0.7; stroke-width: 0.4"/>
     <use xlink:href="#m9d74ffef5d" x="483.177506" y="268.260621" style="fill: #297b8b; fill-opacity: 0.7; stroke: #ffffff; stroke-opacity: 0.7; stroke-width: 0.4"/>
     <use xlink:href="#m9d74ffef5d" x="520.361343" y="252.988886" style="fill: #297b8b; fill-opacity: 0.7; stroke: #ffffff; stroke-opacity: 0.7; stroke-width: 0.4"/>
     <use xlink:href="#m9d74ffef5d" x="542.234188" y="247.261985" style="fill: #297b8b; fill-opacity: 0.7; stroke: #ffffff; stroke-opacity: 0.7; stroke-width: 0.4"/>
     <use xlink:href="#m9d74ffef5d" x="522.548627" y="270.169588" style="fill: #297b8b; fill-opacity: 0.7; stroke: #ffffff; stroke-opacity: 0.7; stroke-width: 0.4"/>
     <use xlink:href="#m9d74ffef5d" x="491.926644" y="214.809548" style="fill: #297b8b; fill-opacity: 0.7; stroke: #ffffff; stroke-opacity: 0.7; stroke-width: 0.4"/>
     <use xlink:href="#m9d74ffef5d" x="483.177506" y="281.62339" style="fill: #297b8b; fill-opacity: 0.7; stroke: #ffffff; stroke-opacity: 0.7; stroke-width: 0.4"/>
     <use xlink:href="#m9d74ffef5d" x="509.42492" y="218.627482" style="fill: #297b8b; fill-opacity: 0.7; stroke: #ffffff; stroke-opacity: 0.7; stroke-width: 0.4"/>
     <use xlink:href="#m9d74ffef5d" x="476.615652" y="304.530993" style="fill: #297b8b; fill-opacity: 0.7; stroke: #ffffff; stroke-opacity: 0.7; stroke-width: 0.4"/>
     <use xlink:href="#m9d74ffef5d" x="494.113929" y="258.715787" style="fill: #297b8b; fill-opacity: 0.7; stroke: #ffffff; stroke-opacity: 0.7; stroke-width: 0.4"/>
     <use xlink:href="#m9d74ffef5d" x="461.304661" y="287.35029" style="fill: #297b8b; fill-opacity: 0.7; stroke: #ffffff; stroke-opacity: 0.7; stroke-width: 0.4"/>
     <use xlink:href="#m9d74ffef5d" x="483.177506" y="304.530993" style="fill: #297b8b; fill-opacity: 0.7; stroke: #ffffff; stroke-opacity: 0.7; stroke-width: 0.4"/>
     <use xlink:href="#m9d74ffef5d" x="522.548627" y="241.535085" style="fill: #297b8b; fill-opacity: 0.7; stroke: #ffffff; stroke-opacity: 0.7; stroke-width: 0.4"/>
     <use xlink:href="#m9d74ffef5d" x="498.488498" y="287.35029" style="fill: #297b8b; fill-opacity: 0.7; stroke: #ffffff; stroke-opacity: 0.7; stroke-width: 0.4"/>
     <use xlink:href="#m9d74ffef5d" x="496.301213" y="294.986158" style="fill: #297b8b; fill-opacity: 0.7; stroke: #ffffff; stroke-opacity: 0.7; stroke-width: 0.4"/>
     <use xlink:href="#m9d74ffef5d" x="463.491945" y="275.896489" style="fill: #297b8b; fill-opacity: 0.7; stroke: #ffffff; stroke-opacity: 0.7; stroke-width: 0.4"/>
     <use xlink:href="#m9d74ffef5d" x="515.986774" y="256.80682" style="fill: #297b8b; fill-opacity: 0.7; stroke: #ffffff; stroke-opacity: 0.7; stroke-width: 0.4"/>
     <use xlink:href="#m9d74ffef5d" x="507.237636" y="260.624754" style="fill: #297b8b; fill-opacity: 0.7; stroke: #ffffff; stroke-opacity: 0.7; stroke-width: 0.4"/>
     <use xlink:href="#m9d74ffef5d" x="524.735912" y="258.715787" style="fill: #297b8b; fill-opacity: 0.7; stroke: #ffffff; stroke-opacity: 0.7; stroke-width: 0.4"/>
     <use xlink:href="#m9d74ffef5d" x="489.73936" y="285.441324" style="fill: #297b8b; fill-opacity: 0.7; stroke: #ffffff; stroke-opacity: 0.7; stroke-width: 0.4"/>
     <use xlink:href="#m9d74ffef5d" x="474.428368" y="230.081283" style="fill: #297b8b; fill-opacity: 0.7; stroke: #ffffff; stroke-opacity: 0.7; stroke-width: 0.4"/>
    </g>
   </g>
   <g id="matplotlib.axis_3">
    <g id="xtick_6">
     <g id="line2d_14">
      <g>
       <use xlink:href="#m5efe633de0" x="426.308108" y="361.8" style="stroke: #000000; stroke-width: 0.8"/>
      </g>
     </g>
     <g id="text_16">
      <text style="font-size: 10px; font-family: 'Arial Unicode MS'; text-anchor: middle" x="426.308108" y="376.080273" transform="rotate(-0 426.308108 376.080273)">0</text>
     </g>
    </g>
    <g id="xtick_7">
     <g id="line2d_15">
      <g>
       <use xlink:href="#m5efe633de0" x="470.053799" y="361.8" style="stroke: #000000; stroke-width: 0.8"/>
      </g>
     </g>
     <g id="text_17">
      <text style="font-size: 10px; font-family: 'Arial Unicode MS'; text-anchor: middle" x="470.053799" y="376.080273" transform="rotate(-0 470.053799 376.080273)">5</text>
     </g>
    </g>
    <g id="xtick_8">
     <g id="line2d_16">
      <g>
       <use xlink:href="#m5efe633de0" x="513.799489" y="361.8" style="stroke: #000000; stroke-width: 0.8"/>
      </g>
     </g>
     <g id="text_18">
      <text style="font-size: 10px; font-family: 'Arial Unicode MS'; text-anchor: middle" x="513.799489" y="376.080273" transform="rotate(-0 513.799489 376.080273)">10</text>
     </g>
    </g>
    <g id="xtick_9">
     <g id="line2d_17">
      <g>
       <use xlink:href="#m5efe633de0" x="557.54518" y="361.8" style="stroke: #000000; stroke-width: 0.8"/>
      </g>
     </g>
     <g id="text_19">
      <text style="font-size: 10px; font-family: 'Arial Unicode MS'; text-anchor: middle" x="557.54518" y="376.080273" transform="rotate(-0 557.54518 376.080273)">15</text>
     </g>
    </g>
    <g id="xtick_10">
     <g id="line2d_18">
      <g>
       <use xlink:href="#m5efe633de0" x="601.290871" y="361.8" style="stroke: #000000; stroke-width: 0.8"/>
      </g>
     </g>
     <g id="text_20">
      <text style="font-size: 10px; font-family: 'Arial Unicode MS'; text-anchor: middle" x="601.290871" y="376.080273" transform="rotate(-0 601.290871 376.080273)">20</text>
     </g>
    </g>
    <g id="xtick_11">
     <g id="line2d_19">
      <g>
       <use xlink:href="#m5efe633de0" x="645.036561" y="361.8" style="stroke: #000000; stroke-width: 0.8"/>
      </g>
     </g>
     <g id="text_21">
      <text style="font-size: 10px; font-family: 'Arial Unicode MS'; text-anchor: middle" x="645.036561" y="376.080273" transform="rotate(-0 645.036561 376.080273)">25</text>
     </g>
    </g>
    <g id="text_22">
     <text style="font-size: 10px; font-family: 'Arial Unicode MS'; text-anchor: middle; fill: #344f5a" x="556.2" y="390.57832" transform="rotate(-0 556.2 390.57832)">流量半峰宽（小时）</text>
    </g>
   </g>
   <g id="matplotlib.axis_4">
    <g id="ytick_7">
     <g id="line2d_20">
      <g>
       <use xlink:href="#mb4dab8e6a9" x="426.308108" y="361.8" style="stroke: #000000; stroke-width: 0.8"/>
      </g>
     </g>
     <g id="text_23">
      <text style="font-size: 10px; font-family: 'Arial Unicode MS'; text-anchor: end" x="419.308108" y="365.440137" transform="rotate(-0 419.308108 365.440137)">0</text>
     </g>
    </g>
    <g id="ytick_8">
     <g id="line2d_21">
      <g>
       <use xlink:href="#mb4dab8e6a9" x="426.308108" y="323.620662" style="stroke: #000000; stroke-width: 0.8"/>
      </g>
     </g>
     <g id="text_24">
      <text style="font-size: 10px; font-family: 'Arial Unicode MS'; text-anchor: end" x="419.308108" y="327.260799" transform="rotate(-0 419.308108 327.260799)">5</text>
     </g>
    </g>
    <g id="ytick_9">
     <g id="line2d_22">
      <g>
       <use xlink:href="#mb4dab8e6a9" x="426.308108" y="285.441324" style="stroke: #000000; stroke-width: 0.8"/>
      </g>
     </g>
     <g id="text_25">
      <text style="font-size: 10px; font-family: 'Arial Unicode MS'; text-anchor: end" x="419.308108" y="289.08146" transform="rotate(-0 419.308108 289.08146)">10</text>
     </g>
    </g>
    <g id="ytick_10">
     <g id="line2d_23">
      <g>
       <use xlink:href="#mb4dab8e6a9" x="426.308108" y="247.261985" style="stroke: #000000; stroke-width: 0.8"/>
      </g>
     </g>
     <g id="text_26">
      <text style="font-size: 10px; font-family: 'Arial Unicode MS'; text-anchor: end" x="419.308108" y="250.902122" transform="rotate(-0 419.308108 250.902122)">15</text>
     </g>
    </g>
    <g id="ytick_11">
     <g id="line2d_24">
      <g>
       <use xlink:href="#mb4dab8e6a9" x="426.308108" y="209.082647" style="stroke: #000000; stroke-width: 0.8"/>
      </g>
     </g>
     <g id="text_27">
      <text style="font-size: 10px; font-family: 'Arial Unicode MS'; text-anchor: end" x="419.308108" y="212.722784" transform="rotate(-0 419.308108 212.722784)">20</text>
     </g>
    </g>
    <g id="ytick_12">
     <g id="line2d_25">
      <g>
       <use xlink:href="#mb4dab8e6a9" x="426.308108" y="170.903309" style="stroke: #000000; stroke-width: 0.8"/>
      </g>
     </g>
     <g id="text_28">
      <text style="font-size: 10px; font-family: 'Arial Unicode MS'; text-anchor: end" x="419.308108" y="174.543446" transform="rotate(-0 419.308108 174.543446)">25</text>
     </g>
    </g>
    <g id="text_29">
     <text style="font-size: 10px; font-family: 'Arial Unicode MS'; text-anchor: middle; fill: #344f5a" x="402.086233" y="248.436" transform="rotate(-90 402.086233 248.436)">DOC 半峰宽（小时）</text>
    </g>
   </g>
   <g id="line2d_26">
    <path d="M 426.308108 361.8 
L 686.091892 135.072 
" clip-path="url(#p2dd75faec4)" style="fill: none; stroke-dasharray: 3.7,1.6; stroke-dashoffset: 0; stroke: #344f5a"/>
   </g>
   <g id="patch_6">
    <path d="M 426.308108 361.8 
L 426.308108 135.072 
" style="fill: none; stroke: #000000; stroke-width: 0.8; stroke-linejoin: miter; stroke-linecap: square"/>
   </g>
   <g id="patch_7">
    <path d="M 426.308108 361.8 
L 686.091892 361.8 
" style="fill: none; stroke: #000000; stroke-width: 0.8; stroke-linejoin: miter; stroke-linecap: square"/>
   </g>
   <g id="text_30">
    <text style="font-size: 9px; font-family: 'Arial Unicode MS'; fill: #344f5a" transform="translate(557.283535 319.926194)">DOC／流量宽度比中位数 1.65</text>
    <text style="font-size: 9px; font-family: 'Arial Unicode MS'; fill: #344f5a" transform="translate(583.278066 330.560959)">54/55 次 DOC 脉冲更宽</text>
    <text style="font-size: 9px; font-family: 'Arial Unicode MS'; fill: #344f5a" transform="translate(615.298378 341.17885)">虚线：宽度相等</text>
   </g>
   <g id="text_31">
    <text style="font-size: 10px; font-family: 'Arial Unicode MS'; text-anchor: start; fill: #344f5a" x="426.308108" y="129.072" transform="rotate(-0 426.308108 129.072)">b  脉冲展宽（全部 55 对）</text>
   </g>
  </g>
  <g id="axes_3">
   <g id="patch_8">
    <path d="M 777.016216 361.8 
L 1036.8 361.8 
L 1036.8 135.072 
L 777.016216 135.072 
z
" style="fill: #ffffff"/>
   </g>
   <g id="matplotlib.axis_5">
    <g id="xtick_12">
     <g id="line2d_27">
      <g>
       <use xlink:href="#m5efe633de0" x="788.024004" y="361.8" style="stroke: #000000; stroke-width: 0.8"/>
      </g>
     </g>
     <g id="text_32">
      <text style="font-size: 10px; font-family: 'Arial Unicode MS'; text-anchor: middle" x="788.024004" y="376.080273" transform="rotate(-0 788.024004 376.080273)">1.0</text>
     </g>
    </g>
    <g id="xtick_13">
     <g id="line2d_28">
      <g>
       <use xlink:href="#m5efe633de0" x="832.055153" y="361.8" style="stroke: #000000; stroke-width: 0.8"/>
      </g>
     </g>
     <g id="text_33">
      <text style="font-size: 10px; font-family: 'Arial Unicode MS'; text-anchor: middle" x="832.055153" y="376.080273" transform="rotate(-0 832.055153 376.080273)">1.2</text>
     </g>
    </g>
    <g id="xtick_14">
     <g id="line2d_29">
      <g>
       <use xlink:href="#m5efe633de0" x="876.086303" y="361.8" style="stroke: #000000; stroke-width: 0.8"/>
      </g>
     </g>
     <g id="text_34">
      <text style="font-size: 10px; font-family: 'Arial Unicode MS'; text-anchor: middle" x="876.086303" y="376.080273" transform="rotate(-0 876.086303 376.080273)">1.4</text>
     </g>
    </g>
    <g id="xtick_15">
     <g id="line2d_30">
      <g>
       <use xlink:href="#m5efe633de0" x="920.117453" y="361.8" style="stroke: #000000; stroke-width: 0.8"/>
      </g>
     </g>
     <g id="text_35">
      <text style="font-size: 10px; font-family: 'Arial Unicode MS'; text-anchor: middle" x="920.117453" y="376.080273" transform="rotate(-0 920.117453 376.080273)">1.6</text>
     </g>
    </g>
    <g id="xtick_16">
     <g id="line2d_31">
      <g>
       <use xlink:href="#m5efe633de0" x="964.148603" y="361.8" style="stroke: #000000; stroke-width: 0.8"/>
      </g>
     </g>
     <g id="text_36">
      <text style="font-size: 10px; font-family: 'Arial Unicode MS'; text-anchor: middle" x="964.148603" y="376.080273" transform="rotate(-0 964.148603 376.080273)">1.8</text>
     </g>
    </g>
    <g id="xtick_17">
     <g id="line2d_32">
      <g>
       <use xlink:href="#m5efe633de0" x="1008.179753" y="361.8" style="stroke: #000000; stroke-width: 0.8"/>
      </g>
     </g>
     <g id="text_37">
      <text style="font-size: 10px; font-family: 'Arial Unicode MS'; text-anchor: middle" x="1008.179753" y="376.080273" transform="rotate(-0 1008.179753 376.080273)">2.0</text>
     </g>
    </g>
    <g id="text_38">
     <text style="font-size: 10px; font-family: 'Arial Unicode MS'; text-anchor: middle; fill: #344f5a" x="906.908108" y="390.57832" transform="rotate(-0 906.908108 390.57832)">DOC／流量半峰宽比</text>
    </g>
   </g>
   <g id="matplotlib.axis_6">
    <g id="ytick_13">
     <g id="line2d_33">
      <g>
       <use xlink:href="#mb4dab8e6a9" x="777.016216" y="177.5835" style="stroke: #000000; stroke-width: 0.8"/>
      </g>
     </g>
     <g id="text_39">
      <text style="font-size: 10px; font-family: 'Arial Unicode MS'; text-anchor: end" x="770.016216" y="181.223637" transform="rotate(-0 770.016216 181.223637)">15%</text>
     </g>
    </g>
    <g id="ytick_14">
     <g id="line2d_34">
      <g>
       <use xlink:href="#mb4dab8e6a9" x="777.016216" y="248.436" style="stroke: #000000; stroke-width: 0.8"/>
      </g>
     </g>
     <g id="text_40">
      <text style="font-size: 10px; font-family: 'Arial Unicode MS'; text-anchor: end" x="770.016216" y="252.076137" transform="rotate(-0 770.016216 252.076137)">20%</text>
     </g>
    </g>
    <g id="ytick_15">
     <g id="line2d_35">
      <g>
       <use xlink:href="#mb4dab8e6a9" x="777.016216" y="319.2885" style="stroke: #000000; stroke-width: 0.8"/>
      </g>
     </g>
     <g id="text_41">
      <text style="font-size: 10px; font-family: 'Arial Unicode MS'; text-anchor: end" x="770.016216" y="322.928637" transform="rotate(-0 770.016216 322.928637)">25%</text>
     </g>
    </g>
    <g id="text_42">
     <text style="font-size: 10px; font-family: 'Arial Unicode MS'; text-anchor: middle; fill: #344f5a" x="743.902544" y="248.436" transform="rotate(-90 743.902544 248.436)">流量相对突出度阈值</text>
    </g>
   </g>
   <g id="line2d_36">
    <path d="M 873.640128 177.5835 
L 955.342373 177.5835 
" clip-path="url(#pdc407b7b9b)" style="fill: none; stroke: #297b8b; stroke-width: 1.6; stroke-linecap: square"/>
   </g>
   <g id="line2d_37">
    <path d="M 871.531357 248.436 
L 973.462885 248.436 
" clip-path="url(#pdc407b7b9b)" style="fill: none; stroke: #297b8b; stroke-width: 1.6; stroke-linecap: square"/>
   </g>
   <g id="line2d_38">
    <path d="M 883.158874 319.2885 
L 978.568161 319.2885 
" clip-path="url(#pdc407b7b9b)" style="fill: none; stroke: #297b8b; stroke-width: 1.6; stroke-linecap: square"/>
   </g>
   <g id="line2d_39">
    <path d="M 788.024004 361.8 
L 788.024004 135.072 
" clip-path="url(#pdc407b7b9b)" style="fill: none; stroke-dasharray: 3.7,1.6; stroke-dashoffset: 0; stroke: #344f5a"/>
   </g>
   <g id="patch_9">
    <path d="M 777.016216 361.8 
L 777.016216 135.072 
" style="fill: none; stroke: #000000; stroke-width: 0.8; stroke-linejoin: miter; stroke-linecap: square"/>
   </g>
   <g id="patch_10">
    <path d="M 777.016216 361.8 
L 1036.8 361.8 
" style="fill: none; stroke: #000000; stroke-width: 0.8; stroke-linejoin: miter; stroke-linecap: square"/>
   </g>
   <g id="PathCollection_2">
    <defs>
     <path id="m9767f2454b" d="M 0 2.738613 
C 0.726289 2.738613 1.422928 2.450055 1.936492 1.936492 
C 2.450055 1.422928 2.738613 0.726289 2.738613 0 
C 2.738613 -0.726289 2.450055 -1.422928 1.936492 -1.936492 
C 1.422928 -2.450055 0.726289 -2.738613 0 -2.738613 
C -0.726289 -2.738613 -1.422928 -2.450055 -1.936492 -1.936492 
C -2.450055 -1.422928 -2.738613 -0.726289 -2.738613 0 
C -2.738613 0.726289 -2.450055 1.422928 -1.936492 1.936492 
C -1.422928 2.450055 -0.726289 2.738613 0 2.738613 
z
" style="stroke: #297b8b"/>
    </defs>
    <g clip-path="url(#pdc407b7b9b)">
     <use xlink:href="#m9767f2454b" x="915.259765" y="177.5835" style="fill: #297b8b; stroke: #297b8b"/>
    </g>
   </g>
   <g id="text_43">
    <text style="font-size: 8px; font-family: 'Arial Unicode MS'; text-anchor: start; fill: #344f5a" x="959.745488" y="179.655766" transform="rotate(-0 959.745488 179.655766)">n=58</text>
   </g>
   <g id="PathCollection_3">
    <defs>
     <path id="m1d893b6c42" d="M 0 3.708099 
C 0.983399 3.708099 1.926654 3.317391 2.622022 2.622022 
C 3.317391 1.926654 3.708099 0.983399 3.708099 0 
C 3.708099 -0.983399 3.317391 -1.926654 2.622022 -2.622022 
C 1.926654 -3.317391 0.983399 -3.708099 0 -3.708099 
C -0.983399 -3.708099 -1.926654 -3.317391 -2.622022 -2.622022 
C -3.317391 -1.926654 -3.708099 -0.983399 -3.708099 0 
C -3.708099 0.983399 -3.317391 1.926654 -2.622022 2.622022 
C -1.926654 3.317391 -0.983399 3.708099 0 3.708099 
z
" style="stroke: #297b8b"/>
    </defs>
    <g clip-path="url(#pdc407b7b9b)">
     <use xlink:href="#m1d893b6c42" x="931.60384" y="248.436" style="fill: #297b8b; stroke: #297b8b"/>
    </g>
   </g>
   <g id="text_44">
    <text style="font-size: 8px; font-family: 'Arial Unicode MS'; text-anchor: start; fill: #344f5a" x="977.866" y="250.508266" transform="rotate(-0 977.866 250.508266)">n=55</text>
   </g>
   <g id="PathCollection_4">
    <g clip-path="url(#pdc407b7b9b)">
     <use xlink:href="#m9767f2454b" x="940.665323" y="319.2885" style="fill: #297b8b; stroke: #297b8b"/>
    </g>
   </g>
   <g id="text_45">
    <text style="font-size: 8px; font-family: 'Arial Unicode MS'; text-anchor: start; fill: #344f5a" x="982.971276" y="321.360766" transform="rotate(-0 982.971276 321.360766)">n=54</text>
   </g>
   <g id="text_46">
    <text style="font-size: 10px; font-family: 'Arial Unicode MS'; text-anchor: start; fill: #344f5a" x="777.016216" y="129.072" transform="rotate(-0 777.016216 129.072)">c  换阈值后的结果</text>
   </g>
  </g>
  <g id="text_47">
   <text style="font-size: 18px; font-family: 'Arial Unicode MS'; text-anchor: start; fill: #344f5a" x="75.6" y="34.413187" transform="rotate(-0 75.6 34.413187)">真实观测中，DOC 峰通常更晚，也更宽</text>
  </g>
  <g id="text_48">
   <text style="font-size: 10px; font-family: 'Arial Unicode MS'; text-anchor: start; fill: #344f5a" x="75.6" y="62.712" transform="rotate(-0 75.6 62.712)">59 次可辨认的正向 DOC 响应；55 对完整宽度；2020–2023 年；同一真实流域</text>
  </g>
  <g id="text_49">
   <text style="font-size: 9px; font-family: 'Arial Unicode MS'; fill: #344f5a" transform="translate(75.6 406.324828)">主分析按流量相对突出度 20% 选事件；宽度比的月分组 95% 区间：1.38–1.84。</text>
   <text style="font-size: 9px; font-family: 'Arial Unicode MS'; fill: #344f5a" transform="translate(75.6 417.276)">没有拟合时间平移或插值。这里测的是出口 DOC 响应，不把延迟直接当流速，也不据此判定不同形态的效应。</text>
  </g>
  <g id="text_50">
   <text style="font-size: 8px; font-family: 'Arial Unicode MS'; text-anchor: start; fill: #344f5a" x="75.6" y="465.516" transform="rotate(-0 75.6 465.516)">Source: Faucheux et al. (2024), doi:10.57745/OFOUWE; AgrHyS observed level/rating-curve discharge</text>
  </g>
 </g>
 <defs>
  <clipPath id="p7496978c66">
   <rect x="75.6" y="135.072" width="259.783784" height="226.728"/>
  </clipPath>
  <clipPath id="p2dd75faec4">
   <rect x="426.308108" y="135.072" width="259.783784" height="226.728"/>
  </clipPath>
  <clipPath id="pdc407b7b9b">
   <rect x="777.016216" y="135.072" width="259.783784" height="226.728"/>
  </clipPath>
 </defs>
</svg>
