<?xml version="1.0" encoding="utf-8" standalone="no"?>
<!DOCTYPE svg PUBLIC "-//W3C//DTD SVG 1.1//EN"
  "http://www.w3.org/Graphics/SVG/1.1/DTD/svg11.dtd">
<svg xmlns:xlink="http://www.w3.org/1999/xlink" width="875.488814pt" height="597.386969pt" viewBox="0 0 875.488814 597.386969" xmlns="http://www.w3.org/2000/svg" version="1.1">
 <metadata>
  <rdf:RDF xmlns:dc="http://purl.org/dc/elements/1.1/" xmlns:cc="http://creativecommons.org/ns#" xmlns:rdf="http://www.w3.org/1999/02/22-rdf-syntax-ns#">
   <cc:Work>
    <dc:type rdf:resource="http://purl.org/dc/dcmitype/StillImage"/>
    <dc:date>2026-10-10T08:12:41.957167</dc:date>
    <dc:format>image/svg+xml</dc:format>
    <dc:creator>
     <cc:Agent>
      <dc:title>Matplotlib v3.11.2, https://matplotlib.org/</dc:title>
     </cc:Agent>
    </dc:creator>
   </cc:Work>
  </rdf:RDF>
 </metadata>
 <defs>
  <style type="text/css">*{stroke-linejoin: round; stroke-linecap: butt}</style>
 </defs>
 <g id="figure_1">
  <g id="patch_1">
   <path d="M 0 597.386969 
L 875.488814 597.386969 
L 875.488814 0 
L 0 0 
z
" style="fill: #ffffff"/>
  </g>
  <g id="axes_1">
   <g id="patch_2">
    <path d="M 178.103125 243.257391 
L 408.806783 243.257391 
L 408.806783 21.558281 
L 178.103125 21.558281 
z
" style="fill: #ffffff"/>
   </g>
   <g id="PathCollection_1">
    <defs>
     <path id="m99adb56133" d="M 0 3.24037 
C 0.859356 3.24037 1.683631 2.898944 2.291288 2.291288 
C 2.898944 1.683631 3.24037 0.859356 3.24037 0 
C 3.24037 -0.859356 2.898944 -1.683631 2.291288 -2.291288 
C 1.683631 -2.898944 0.859356 -3.24037 0 -3.24037 
C -0.859356 -3.24037 -1.683631 -2.898944 -2.291288 -2.291288 
C -2.898944 -1.683631 -3.24037 -0.859356 -3.24037 0 
C -3.24037 0.859356 -2.898944 1.683631 -2.291288 2.291288 
C -1.683631 2.898944 -0.859356 3.24037 0 3.24037 
z
" style="stroke: #335c81"/>
    </defs>
    <g clip-path="url(#p8db3a00361)">
     <use xlink:href="#m99adb56133" x="316.52532" y="31.635513" style="fill: #335c81; stroke: #335c81"/>
    </g>
   </g>
   <g id="PathCollection_2">
    <defs>
     <path id="mda90d0082e" d="M 0 3.24037 
C 0.859356 3.24037 1.683631 2.898944 2.291288 2.291288 
C 2.898944 1.683631 3.24037 0.859356 3.24037 0 
C 3.24037 -0.859356 2.898944 -1.683631 2.291288 -2.291288 
C 1.683631 -2.898944 0.859356 -3.24037 0 -3.24037 
C -0.859356 -3.24037 -1.683631 -2.898944 -2.291288 -2.291288 
C -2.898944 -1.683631 -3.24037 -0.859356 -3.24037 0 
C -3.24037 0.859356 -2.898944 1.683631 -2.291288 2.291288 
C -1.683631 2.898944 -0.859356 3.24037 0 3.24037 
z
" style="stroke: #81a4ae"/>
    </defs>
    <g clip-path="url(#p8db3a00361)">
     <use xlink:href="#mda90d0082e" x="227.645702" y="71.944442" style="fill: #81a4ae; stroke: #81a4ae"/>
    </g>
   </g>
   <g id="PathCollection_3">
    <defs>
     <path id="m114eecea8a" d="M 0 3.24037 
C 0.859356 3.24037 1.683631 2.898944 2.291288 2.291288 
C 2.898944 1.683631 3.24037 0.859356 3.24037 0 
C 3.24037 -0.859356 2.898944 -1.683631 2.291288 -2.291288 
C 1.683631 -2.898944 0.859356 -3.24037 0 -3.24037 
C -0.859356 -3.24037 -1.683631 -2.898944 -2.291288 -2.291288 
C -2.898944 -1.683631 -3.24037 -0.859356 -3.24037 0 
C -3.24037 0.859356 -2.898944 1.683631 -2.291288 2.291288 
C -1.683631 2.898944 -0.859356 3.24037 0 3.24037 
z
" style="stroke: #71a48b"/>
    </defs>
    <g clip-path="url(#p8db3a00361)">
     <use xlink:href="#m114eecea8a" x="220.091437" y="112.253371" style="fill: #71a48b; stroke: #71a48b"/>
    </g>
   </g>
   <g id="PathCollection_4">
    <defs>
     <path id="mb46aa0b3b2" d="M 0 3.24037 
C 0.859356 3.24037 1.683631 2.898944 2.291288 2.291288 
C 2.898944 1.683631 3.24037 0.859356 3.24037 0 
C 3.24037 -0.859356 2.898944 -1.683631 2.291288 -2.291288 
C 1.683631 -2.898944 0.859356 -3.24037 0 -3.24037 
C -0.859356 -3.24037 -1.683631 -2.898944 -2.291288 -2.291288 
C -2.898944 -1.683631 -3.24037 -0.859356 -3.24037 0 
C -3.24037 0.859356 -2.898944 1.683631 -2.291288 2.291288 
C -1.683631 2.898944 -0.859356 3.24037 0 3.24037 
z
" style="stroke: #ce7d48"/>
    </defs>
    <g clip-path="url(#p8db3a00361)">
     <use xlink:href="#mb46aa0b3b2" x="201.173491" y="152.5623" style="fill: #ce7d48; stroke: #ce7d48"/>
    </g>
   </g>
   <g id="PathCollection_5">
    <defs>
     <path id="m62a754591b" d="M 0 3.24037 
C 0.859356 3.24037 1.683631 2.898944 2.291288 2.291288 
C 2.898944 1.683631 3.24037 0.859356 3.24037 0 
C 3.24037 -0.859356 2.898944 -1.683631 2.291288 -2.291288 
C 1.683631 -2.898944 0.859356 -3.24037 0 -3.24037 
C -0.859356 -3.24037 -1.683631 -2.898944 -2.291288 -2.291288 
C -2.898944 -1.683631 -3.24037 -0.859356 -3.24037 0 
C -3.24037 0.859356 -2.898944 1.683631 -2.291288 2.291288 
C -1.683631 2.898944 -0.859356 3.24037 0 3.24037 
z
" style="stroke: #d5ad68"/>
    </defs>
    <g clip-path="url(#p8db3a00361)">
     <use xlink:href="#m62a754591b" x="204.566823" y="192.871229" style="fill: #d5ad68; stroke: #d5ad68"/>
    </g>
   </g>
   <g id="PathCollection_6">
    <defs>
     <path id="meb1cb12aab" d="M 0 3.24037 
C 0.859356 3.24037 1.683631 2.898944 2.291288 2.291288 
C 2.898944 1.683631 3.24037 0.859356 3.24037 0 
C 3.24037 -0.859356 2.898944 -1.683631 2.291288 -2.291288 
C 1.683631 -2.898944 0.859356 -3.24037 0 -3.24037 
C -0.859356 -3.24037 -1.683631 -2.898944 -2.291288 -2.291288 
C -2.898944 -1.683631 -3.24037 -0.859356 -3.24037 0 
C -3.24037 0.859356 -2.898944 1.683631 -2.291288 2.291288 
C -1.683631 2.898944 -0.859356 3.24037 0 3.24037 
z
" style="stroke: #9d89b1"/>
    </defs>
    <g clip-path="url(#p8db3a00361)">
     <use xlink:href="#meb1cb12aab" x="290.072966" y="233.180158" style="fill: #9d89b1; stroke: #9d89b1"/>
    </g>
   </g>
   <g id="matplotlib.axis_1">
    <g id="xtick_1">
     <g id="line2d_1">
      <defs>
       <path id="md6d0932bfb" d="M 0 0 
L 0 3.5 
" style="stroke: #000000; stroke-width: 0.8"/>
      </defs>
      <g>
       <use xlink:href="#md6d0932bfb" x="216.629888" y="243.257391" style="stroke: #000000; stroke-width: 0.8"/>
      </g>
     </g>
     <g id="text_1">
      <text style="font-size: 10px; font-family: 'DejaVu Sans'; text-anchor: middle" x="216.629888" y="257.855047" transform="rotate(-0 216.629888 257.855047)">1.718</text>
     </g>
    </g>
    <g id="xtick_2">
     <g id="line2d_2">
      <g>
       <use xlink:href="#md6d0932bfb" x="256.568408" y="243.257391" style="stroke: #000000; stroke-width: 0.8"/>
      </g>
     </g>
     <g id="text_2">
      <text style="font-size: 10px; font-family: 'DejaVu Sans'; text-anchor: middle" x="256.568408" y="257.855047" transform="rotate(-0 256.568408 257.855047)">1.720</text>
     </g>
    </g>
    <g id="xtick_3">
     <g id="line2d_3">
      <g>
       <use xlink:href="#md6d0932bfb" x="296.506929" y="243.257391" style="stroke: #000000; stroke-width: 0.8"/>
      </g>
     </g>
     <g id="text_3">
      <text style="font-size: 10px; font-family: 'DejaVu Sans'; text-anchor: middle" x="296.506929" y="257.855047" transform="rotate(-0 296.506929 257.855047)">1.722</text>
     </g>
    </g>
    <g id="xtick_4">
     <g id="line2d_4">
      <g>
       <use xlink:href="#md6d0932bfb" x="336.445449" y="243.257391" style="stroke: #000000; stroke-width: 0.8"/>
      </g>
     </g>
     <g id="text_4">
      <text style="font-size: 10px; font-family: 'DejaVu Sans'; text-anchor: middle" x="336.445449" y="257.855047" transform="rotate(-0 336.445449 257.855047)">1.724</text>
     </g>
    </g>
    <g id="xtick_5">
     <g id="line2d_5">
      <g>
       <use xlink:href="#md6d0932bfb" x="376.383969" y="243.257391" style="stroke: #000000; stroke-width: 0.8"/>
      </g>
     </g>
     <g id="text_5">
      <text style="font-size: 10px; font-family: 'DejaVu Sans'; text-anchor: middle" x="376.383969" y="257.855047" transform="rotate(-0 376.383969 257.855047)">1.726</text>
     </g>
    </g>
    <g id="text_6">
     <text style="font-size: 10px; font-family: 'DejaVu Sans'; text-anchor: middle" x="293.454954" y="271.855828" transform="rotate(-0 293.454954 271.855828)">DOC MAE (mg/L; expanded scale)</text>
    </g>
   </g>
   <g id="matplotlib.axis_2">
    <g id="ytick_1">
     <g id="line2d_6">
      <defs>
       <path id="mb6739b71ff" d="M 0 0 
L -3.5 0 
" style="stroke: #000000; stroke-width: 0.8"/>
      </defs>
      <g>
       <use xlink:href="#mb6739b71ff" x="178.103125" y="31.635513" style="stroke: #000000; stroke-width: 0.8"/>
      </g>
     </g>
     <g id="text_7">
      <text style="font-size: 10px; font-family: 'DejaVu Sans'; text-anchor: end" x="171.103125" y="35.434732" transform="rotate(-0 171.103125 35.434732)">Complete current model</text>
     </g>
    </g>
    <g id="ytick_2">
     <g id="line2d_7">
      <g>
       <use xlink:href="#mb6739b71ff" x="178.103125" y="71.944442" style="stroke: #000000; stroke-width: 0.8"/>
      </g>
     </g>
     <g id="text_8">
      <text style="font-size: 10px; font-family: 'DejaVu Sans'; text-anchor: end" x="171.103125" y="75.743661" transform="rotate(-0 171.103125 75.743661)">Static upstream pooling</text>
     </g>
    </g>
    <g id="ytick_3">
     <g id="line2d_8">
      <g>
       <use xlink:href="#mb6739b71ff" x="178.103125" y="112.253371" style="stroke: #000000; stroke-width: 0.8"/>
      </g>
     </g>
     <g id="text_9">
      <text style="font-size: 10px; font-family: 'DejaVu Sans'; text-anchor: end" x="171.103125" y="116.05259" transform="rotate(-0 171.103125 116.05259)">Dynamic same-month messages</text>
     </g>
    </g>
    <g id="ytick_4">
     <g id="line2d_9">
      <g>
       <use xlink:href="#mb6739b71ff" x="178.103125" y="152.5623" style="stroke: #000000; stroke-width: 0.8"/>
      </g>
     </g>
     <g id="text_10">
      <text style="font-size: 10px; font-family: 'DejaVu Sans'; text-anchor: end" x="171.103125" y="156.361519" transform="rotate(-0 171.103125 156.361519)">Dynamic upstream + history</text>
     </g>
    </g>
    <g id="ytick_5">
     <g id="line2d_10">
      <g>
       <use xlink:href="#mb6739b71ff" x="178.103125" y="192.871229" style="stroke: #000000; stroke-width: 0.8"/>
      </g>
     </g>
     <g id="text_11">
      <text style="font-size: 10px; font-family: 'DejaVu Sans'; text-anchor: end" x="171.103125" y="196.670448" transform="rotate(-0 171.103125 196.670448)">Support-matched upstream</text>
     </g>
    </g>
    <g id="ytick_6">
     <g id="line2d_11">
      <g>
       <use xlink:href="#mb6739b71ff" x="178.103125" y="233.180158" style="stroke: #000000; stroke-width: 0.8"/>
      </g>
     </g>
     <g id="text_12">
      <text style="font-size: 10px; font-family: 'DejaVu Sans'; text-anchor: end" x="171.103125" y="236.979377" transform="rotate(-0 171.103125 236.979377)">Support-matched non-upstream</text>
     </g>
    </g>
   </g>
   <g id="patch_3">
    <path d="M 178.103125 243.257391 
L 178.103125 21.558281 
" style="fill: none; stroke: #000000; stroke-width: 0.8; stroke-linejoin: miter; stroke-linecap: square"/>
   </g>
   <g id="patch_4">
    <path d="M 178.103125 243.257391 
L 408.806783 243.257391 
" style="fill: none; stroke: #000000; stroke-width: 0.8; stroke-linejoin: miter; stroke-linecap: square"/>
   </g>
   <g id="text_13">
    <text style="font-size: 9px; font-family: 'DejaVu Sans'; text-anchor: start" x="324.52532" y="33.973404" transform="rotate(-0 324.52532 33.973404)">1.7230</text>
   </g>
   <g id="text_14">
    <text style="font-size: 9px; font-family: 'DejaVu Sans'; text-anchor: start" x="235.645702" y="74.282333" transform="rotate(-0 235.645702 74.282333)">1.7186</text>
   </g>
   <g id="text_15">
    <text style="font-size: 9px; font-family: 'DejaVu Sans'; text-anchor: start" x="228.091437" y="114.591262" transform="rotate(-0 228.091437 114.591262)">1.7182</text>
   </g>
   <g id="text_16">
    <text style="font-size: 9px; font-family: 'DejaVu Sans'; text-anchor: start" x="209.173491" y="154.900191" transform="rotate(-0 209.173491 154.900191)">1.7172</text>
   </g>
   <g id="text_17">
    <text style="font-size: 9px; font-family: 'DejaVu Sans'; text-anchor: start" x="212.566823" y="195.20912" transform="rotate(-0 212.566823 195.20912)">1.7174</text>
   </g>
   <g id="text_18">
    <text style="font-size: 9px; font-family: 'DejaVu Sans'; text-anchor: start" x="298.072966" y="235.518049" transform="rotate(-0 298.072966 235.518049)">1.7217</text>
   </g>
   <g id="text_19">
    <text style="font-size: 11px; font-family: 'DejaVu Sans'; text-anchor: start" x="178.103125" y="15.558281" transform="rotate(-0 178.103125 15.558281)">a  Complete prediction and river extensions</text>
   </g>
  </g>
  <g id="axes_2">
   <g id="patch_5">
    <path d="M 602.846783 243.257391 
L 845.085623 243.257391 
L 845.085623 21.558281 
L 602.846783 21.558281 
z
" style="fill: #ffffff"/>
   </g>
   <g id="matplotlib.axis_3">
    <g id="xtick_6">
     <g id="line2d_12">
      <path d="M 639.684609 243.257391 
L 639.684609 21.558281 
" clip-path="url(#p622ea1c1bd)" style="fill: none; stroke: #e9edef; stroke-width: 0.7; stroke-linecap: square"/>
     </g>
     <g id="line2d_13">
      <g>
       <use xlink:href="#md6d0932bfb" x="639.684609" y="243.257391" style="stroke: #000000; stroke-width: 0.8"/>
      </g>
     </g>
     <g id="text_20">
      <text style="font-size: 10px; font-family: 'DejaVu Sans'; text-anchor: middle" x="639.684609" y="257.855047" transform="rotate(-0 639.684609 257.855047)">0.0</text>
     </g>
    </g>
    <g id="xtick_7">
     <g id="line2d_14">
      <path d="M 696.918297 243.257391 
L 696.918297 21.558281 
" clip-path="url(#p622ea1c1bd)" style="fill: none; stroke: #e9edef; stroke-width: 0.7; stroke-linecap: square"/>
     </g>
     <g id="line2d_15">
      <g>
       <use xlink:href="#md6d0932bfb" x="696.918297" y="243.257391" style="stroke: #000000; stroke-width: 0.8"/>
      </g>
     </g>
     <g id="text_21">
      <text style="font-size: 10px; font-family: 'DejaVu Sans'; text-anchor: middle" x="696.918297" y="257.855047" transform="rotate(-0 696.918297 257.855047)">0.2</text>
     </g>
    </g>
    <g id="xtick_8">
     <g id="line2d_16">
      <path d="M 754.151985 243.257391 
L 754.151985 21.558281 
" clip-path="url(#p622ea1c1bd)" style="fill: none; stroke: #e9edef; stroke-width: 0.7; stroke-linecap: square"/>
     </g>
     <g id="line2d_17">
      <g>
       <use xlink:href="#md6d0932bfb" x="754.151985" y="243.257391" style="stroke: #000000; stroke-width: 0.8"/>
      </g>
     </g>
     <g id="text_22">
      <text style="font-size: 10px; font-family: 'DejaVu Sans'; text-anchor: middle" x="754.151985" y="257.855047" transform="rotate(-0 754.151985 257.855047)">0.4</text>
     </g>
    </g>
    <g id="xtick_9">
     <g id="line2d_18">
      <path d="M 811.385673 243.257391 
L 811.385673 21.558281 
" clip-path="url(#p622ea1c1bd)" style="fill: none; stroke: #e9edef; stroke-width: 0.7; stroke-linecap: square"/>
     </g>
     <g id="line2d_19">
      <g>
       <use xlink:href="#md6d0932bfb" x="811.385673" y="243.257391" style="stroke: #000000; stroke-width: 0.8"/>
      </g>
     </g>
     <g id="text_23">
      <text style="font-size: 10px; font-family: 'DejaVu Sans'; text-anchor: middle" x="811.385673" y="257.855047" transform="rotate(-0 811.385673 257.855047)">0.6</text>
     </g>
    </g>
    <g id="text_24">
     <text style="font-size: 10px; font-family: 'DejaVu Sans'; text-anchor: middle" x="723.966203" y="271.855828" transform="rotate(-0 723.966203 271.855828)">MAE reduction versus complete model (%)</text>
    </g>
   </g>
   <g id="matplotlib.axis_4">
    <g id="ytick_7">
     <g id="line2d_20">
      <g>
       <use xlink:href="#mb6739b71ff" x="602.846783" y="31.635513" style="stroke: #000000; stroke-width: 0.8"/>
      </g>
     </g>
     <g id="text_25">
      <text style="font-size: 10px; font-family: 'DejaVu Sans'; text-anchor: end" x="595.846783" y="35.434732" transform="rotate(-0 595.846783 35.434732)">Static upstream pooling</text>
     </g>
    </g>
    <g id="ytick_8">
     <g id="line2d_21">
      <g>
       <use xlink:href="#mb6739b71ff" x="602.846783" y="82.021675" style="stroke: #000000; stroke-width: 0.8"/>
      </g>
     </g>
     <g id="text_26">
      <text style="font-size: 10px; font-family: 'DejaVu Sans'; text-anchor: end" x="595.846783" y="85.820893" transform="rotate(-0 595.846783 85.820893)">Dynamic same-month messages</text>
     </g>
    </g>
    <g id="ytick_9">
     <g id="line2d_22">
      <g>
       <use xlink:href="#mb6739b71ff" x="602.846783" y="132.407836" style="stroke: #000000; stroke-width: 0.8"/>
      </g>
     </g>
     <g id="text_27">
      <text style="font-size: 10px; font-family: 'DejaVu Sans'; text-anchor: end" x="595.846783" y="136.207055" transform="rotate(-0 595.846783 136.207055)">Dynamic upstream + history</text>
     </g>
    </g>
    <g id="ytick_10">
     <g id="line2d_23">
      <g>
       <use xlink:href="#mb6739b71ff" x="602.846783" y="182.793997" style="stroke: #000000; stroke-width: 0.8"/>
      </g>
     </g>
     <g id="text_28">
      <text style="font-size: 10px; font-family: 'DejaVu Sans'; text-anchor: end" x="595.846783" y="186.593216" transform="rotate(-0 595.846783 186.593216)">Support-matched upstream</text>
     </g>
    </g>
    <g id="ytick_11">
     <g id="line2d_24">
      <g>
       <use xlink:href="#mb6739b71ff" x="602.846783" y="233.180158" style="stroke: #000000; stroke-width: 0.8"/>
      </g>
     </g>
     <g id="text_29">
      <text style="font-size: 10px; font-family: 'DejaVu Sans'; text-anchor: end" x="595.846783" y="236.979377" transform="rotate(-0 595.846783 236.979377)">Support-matched non-upstream</text>
     </g>
    </g>
   </g>
   <g id="line2d_25">
    <path d="M 635.290196 31.635513 
L 788.474649 31.635513 
" clip-path="url(#p622ea1c1bd)" style="fill: none; stroke: #335c81; stroke-width: 1.6; stroke-linecap: square"/>
   </g>
   <g id="line2d_26">
    <path d="M 613.857639 82.021675 
L 817.052966 82.021675 
" clip-path="url(#p622ea1c1bd)" style="fill: none; stroke: #335c81; stroke-width: 1.6; stroke-linecap: square"/>
   </g>
   <g id="line2d_27">
    <path d="M 628.452702 132.407836 
L 834.074767 132.407836 
" clip-path="url(#p622ea1c1bd)" style="fill: none; stroke: #335c81; stroke-width: 1.6; stroke-linecap: square"/>
   </g>
   <g id="line2d_28">
    <path d="M 644.436387 182.793997 
L 824.51649 182.793997 
" clip-path="url(#p622ea1c1bd)" style="fill: none; stroke: #335c81; stroke-width: 1.6; stroke-linecap: square"/>
   </g>
   <g id="line2d_29">
    <path d="M 632.675719 233.180158 
L 700.760274 233.180158 
" clip-path="url(#p622ea1c1bd)" style="fill: none; stroke: #335c81; stroke-width: 1.6; stroke-linecap: square"/>
   </g>
   <g id="line2d_30">
    <path d="M 639.684609 243.257391 
L 639.684609 21.558281 
" clip-path="url(#p622ea1c1bd)" style="fill: none; stroke-dasharray: 2.96,1.28; stroke-dashoffset: 0; stroke: #60676c; stroke-width: 0.8"/>
   </g>
   <g id="patch_6">
    <path d="M 602.846783 243.257391 
L 845.085623 243.257391 
" style="fill: none; stroke: #000000; stroke-width: 0.8; stroke-linejoin: miter; stroke-linecap: square"/>
   </g>
   <g id="PathCollection_7">
    <defs>
     <path id="ma32bda698e" d="M 0 2.95804 
C 0.784481 2.95804 1.536938 2.646362 2.09165 2.09165 
C 2.646362 1.536938 2.95804 0.784481 2.95804 0 
C 2.95804 -0.784481 2.646362 -1.536938 2.09165 -2.09165 
C 1.536938 -2.646362 0.784481 -2.95804 0 -2.95804 
C -0.784481 -2.95804 -1.536938 -2.646362 -2.09165 -2.09165 
C -2.646362 -1.536938 -2.95804 -0.784481 -2.95804 0 
C -2.95804 0.784481 -2.646362 1.536938 -2.09165 2.09165 
C -1.536938 2.646362 -0.784481 2.95804 0 2.95804 
z
" style="stroke: #ce7d48"/>
    </defs>
    <g clip-path="url(#p622ea1c1bd)">
     <use xlink:href="#ma32bda698e" x="713.607006" y="31.635513" style="fill: #ce7d48; stroke: #ce7d48"/>
    </g>
   </g>
   <g id="PathCollection_8">
    <g clip-path="url(#p622ea1c1bd)">
     <use xlink:href="#ma32bda698e" x="719.889992" y="82.021675" style="fill: #ce7d48; stroke: #ce7d48"/>
    </g>
   </g>
   <g id="PathCollection_9">
    <g clip-path="url(#p622ea1c1bd)">
     <use xlink:href="#ma32bda698e" x="735.624307" y="132.407836" style="fill: #ce7d48; stroke: #ce7d48"/>
    </g>
   </g>
   <g id="PathCollection_10">
    <g clip-path="url(#p622ea1c1bd)">
     <use xlink:href="#ma32bda698e" x="732.802026" y="182.793997" style="fill: #ce7d48; stroke: #ce7d48"/>
    </g>
   </g>
   <g id="PathCollection_11">
    <g clip-path="url(#p622ea1c1bd)">
     <use xlink:href="#ma32bda698e" x="661.685395" y="233.180158" style="fill: #ce7d48; stroke: #ce7d48"/>
    </g>
   </g>
   <g id="text_30">
    <text style="font-size: 11px; font-family: 'DejaVu Sans'; text-anchor: start" x="602.846783" y="15.558281" transform="rotate(-0 602.846783 15.558281)">b  Whole-station bootstrap, 5,000 draws</text>
   </g>
  </g>
  <g id="axes_3">
   <g id="patch_7">
    <path d="M 178.103125 530.636266 
L 408.806783 530.636266 
L 408.806783 308.937156 
L 178.103125 308.937156 
z
" style="fill: #ffffff"/>
   </g>
   <g id="matplotlib.axis_5">
    <g id="xtick_10">
     <g id="line2d_31">
      <g>
       <use xlink:href="#md6d0932bfb" x="188.589655" y="530.636266" style="stroke: #000000; stroke-width: 0.8"/>
      </g>
     </g>
     <g id="text_31">
      <text style="font-size: 10px; font-family: 'DejaVu Sans'; text-anchor: middle" x="188.589655" y="545.234703" transform="rotate(-0 188.589655 545.234703)">Partition 142</text>
     </g>
    </g>
    <g id="xtick_11">
     <g id="line2d_32">
      <g>
       <use xlink:href="#md6d0932bfb" x="293.454954" y="530.636266" style="stroke: #000000; stroke-width: 0.8"/>
      </g>
     </g>
     <g id="text_32">
      <text style="font-size: 10px; font-family: 'DejaVu Sans'; text-anchor: middle" x="293.454954" y="545.234703" transform="rotate(-0 293.454954 545.234703)">Partition 143</text>
     </g>
    </g>
    <g id="xtick_12">
     <g id="line2d_33">
      <g>
       <use xlink:href="#md6d0932bfb" x="398.320253" y="530.636266" style="stroke: #000000; stroke-width: 0.8"/>
      </g>
     </g>
     <g id="text_33">
      <text style="font-size: 10px; font-family: 'DejaVu Sans'; text-anchor: middle" x="398.320253" y="545.234703" transform="rotate(-0 398.320253 545.234703)">Partition 144</text>
     </g>
    </g>
   </g>
   <g id="matplotlib.axis_6">
    <g id="ytick_12">
     <g id="line2d_34">
      <g>
       <use xlink:href="#mb6739b71ff" x="178.103125" y="520.559033" style="stroke: #000000; stroke-width: 0.8"/>
      </g>
     </g>
     <g id="text_34">
      <text style="font-size: 10px; font-family: 'DejaVu Sans'; text-anchor: end" x="171.103125" y="524.357862" transform="rotate(-0 171.103125 524.357862)">0.0</text>
     </g>
    </g>
    <g id="ytick_13">
     <g id="line2d_35">
      <g>
       <use xlink:href="#mb6739b71ff" x="178.103125" y="484.826994" style="stroke: #000000; stroke-width: 0.8"/>
      </g>
     </g>
     <g id="text_35">
      <text style="font-size: 10px; font-family: 'DejaVu Sans'; text-anchor: end" x="171.103125" y="488.625822" transform="rotate(-0 171.103125 488.625822)">0.1</text>
     </g>
    </g>
    <g id="ytick_14">
     <g id="line2d_36">
      <g>
       <use xlink:href="#mb6739b71ff" x="178.103125" y="449.094955" style="stroke: #000000; stroke-width: 0.8"/>
      </g>
     </g>
     <g id="text_36">
      <text style="font-size: 10px; font-family: 'DejaVu Sans'; text-anchor: end" x="171.103125" y="452.893783" transform="rotate(-0 171.103125 452.893783)">0.2</text>
     </g>
    </g>
    <g id="ytick_15">
     <g id="line2d_37">
      <g>
       <use xlink:href="#mb6739b71ff" x="178.103125" y="413.362916" style="stroke: #000000; stroke-width: 0.8"/>
      </g>
     </g>
     <g id="text_37">
      <text style="font-size: 10px; font-family: 'DejaVu Sans'; text-anchor: end" x="171.103125" y="417.161744" transform="rotate(-0 171.103125 417.161744)">0.3</text>
     </g>
    </g>
    <g id="ytick_16">
     <g id="line2d_38">
      <g>
       <use xlink:href="#mb6739b71ff" x="178.103125" y="377.630877" style="stroke: #000000; stroke-width: 0.8"/>
      </g>
     </g>
     <g id="text_38">
      <text style="font-size: 10px; font-family: 'DejaVu Sans'; text-anchor: end" x="171.103125" y="381.429705" transform="rotate(-0 171.103125 381.429705)">0.4</text>
     </g>
    </g>
    <g id="ytick_17">
     <g id="line2d_39">
      <g>
       <use xlink:href="#mb6739b71ff" x="178.103125" y="341.898838" style="stroke: #000000; stroke-width: 0.8"/>
      </g>
     </g>
     <g id="text_39">
      <text style="font-size: 10px; font-family: 'DejaVu Sans'; text-anchor: end" x="171.103125" y="345.697666" transform="rotate(-0 171.103125 345.697666)">0.5</text>
     </g>
    </g>
    <g id="text_40">
     <text style="font-size: 10px; font-family: 'DejaVu Sans'; text-anchor: middle" x="148.797656" y="419.786711" transform="rotate(-90 148.797656 419.786711)">DOC MAE reduction (%)</text>
    </g>
   </g>
   <g id="line2d_40">
    <path d="M 188.589655 474.591354 
L 293.454954 365.275154 
L 398.320253 437.388995 
" clip-path="url(#p2bea317603)" style="fill: none; stroke: #81a4ae; stroke-width: 1.5; stroke-linecap: square"/>
    <defs>
     <path id="me04672c988" d="M 0 3 
C 0.795609 3 1.55874 2.683901 2.12132 2.12132 
C 2.683901 1.55874 3 0.795609 3 0 
C 3 -0.795609 2.683901 -1.55874 2.12132 -2.12132 
C 1.55874 -2.683901 0.795609 -3 0 -3 
C -0.795609 -3 -1.55874 -2.683901 -2.12132 -2.12132 
C -2.683901 -1.55874 -3 -0.795609 -3 0 
C -3 0.795609 -2.683901 1.55874 -2.12132 2.12132 
C -1.55874 2.683901 -0.795609 3 0 3 
z
" style="stroke: #81a4ae"/>
    </defs>
    <g clip-path="url(#p2bea317603)">
     <use xlink:href="#me04672c988" x="188.589655" y="474.591354" style="fill: #81a4ae; stroke: #81a4ae"/>
     <use xlink:href="#me04672c988" x="293.454954" y="365.275154" style="fill: #81a4ae; stroke: #81a4ae"/>
     <use xlink:href="#me04672c988" x="398.320253" y="437.388995" style="fill: #81a4ae; stroke: #81a4ae"/>
    </g>
   </g>
   <g id="line2d_41">
    <path d="M 188.589655 482.533109 
L 293.454954 375.090438 
L 398.320253 396.369627 
" clip-path="url(#p2bea317603)" style="fill: none; stroke: #71a48b; stroke-width: 1.5; stroke-linecap: square"/>
    <defs>
     <path id="md7a7dcb8a2" d="M 0 3 
C 0.795609 3 1.55874 2.683901 2.12132 2.12132 
C 2.683901 1.55874 3 0.795609 3 0 
C 3 -0.795609 2.683901 -1.55874 2.12132 -2.12132 
C 1.55874 -2.683901 0.795609 -3 0 -3 
C -0.795609 -3 -1.55874 -2.683901 -2.12132 -2.12132 
C -2.683901 -1.55874 -3 -0.795609 -3 0 
C -3 0.795609 -2.683901 1.55874 -2.12132 2.12132 
C -1.55874 2.683901 -0.795609 3 0 3 
z
" style="stroke: #71a48b"/>
    </defs>
    <g clip-path="url(#p2bea317603)">
     <use xlink:href="#md7a7dcb8a2" x="188.589655" y="482.533109" style="fill: #71a48b; stroke: #71a48b"/>
     <use xlink:href="#md7a7dcb8a2" x="293.454954" y="375.090438" style="fill: #71a48b; stroke: #71a48b"/>
     <use xlink:href="#md7a7dcb8a2" x="398.320253" y="396.369627" style="fill: #71a48b; stroke: #71a48b"/>
    </g>
   </g>
   <g id="line2d_42">
    <path d="M 188.589655 489.505052 
L 293.454954 319.014388 
L 398.320253 382.199243 
" clip-path="url(#p2bea317603)" style="fill: none; stroke: #ce7d48; stroke-width: 1.5; stroke-linecap: square"/>
    <defs>
     <path id="m45e73b9e4c" d="M 0 3 
C 0.795609 3 1.55874 2.683901 2.12132 2.12132 
C 2.683901 1.55874 3 0.795609 3 0 
C 3 -0.795609 2.683901 -1.55874 2.12132 -2.12132 
C 1.55874 -2.683901 0.795609 -3 0 -3 
C -0.795609 -3 -1.55874 -2.683901 -2.12132 -2.12132 
C -2.683901 -1.55874 -3 -0.795609 -3 0 
C -3 0.795609 -2.683901 1.55874 -2.12132 2.12132 
C -1.55874 2.683901 -0.795609 3 0 3 
z
" style="stroke: #ce7d48"/>
    </defs>
    <g clip-path="url(#p2bea317603)">
     <use xlink:href="#m45e73b9e4c" x="188.589655" y="489.505052" style="fill: #ce7d48; stroke: #ce7d48"/>
     <use xlink:href="#m45e73b9e4c" x="293.454954" y="319.014388" style="fill: #ce7d48; stroke: #ce7d48"/>
     <use xlink:href="#m45e73b9e4c" x="398.320253" y="382.199243" style="fill: #ce7d48; stroke: #ce7d48"/>
    </g>
   </g>
   <g id="line2d_43">
    <path d="M 178.103125 520.559033 
L 408.806783 520.559033 
" clip-path="url(#p2bea317603)" style="fill: none; stroke-dasharray: 2.96,1.28; stroke-dashoffset: 0; stroke: #60676c; stroke-width: 0.8"/>
   </g>
   <g id="patch_8">
    <path d="M 178.103125 530.636266 
L 178.103125 308.937156 
" style="fill: none; stroke: #000000; stroke-width: 0.8; stroke-linejoin: miter; stroke-linecap: square"/>
   </g>
   <g id="patch_9">
    <path d="M 178.103125 530.636266 
L 408.806783 530.636266 
" style="fill: none; stroke: #000000; stroke-width: 0.8; stroke-linejoin: miter; stroke-linecap: square"/>
   </g>
   <g id="text_41">
    <text style="font-size: 11px; font-family: 'DejaVu Sans'; text-anchor: start" x="178.103125" y="302.937156" transform="rotate(-0 178.103125 302.937156)">c  Mean of three seeds within each partition</text>
   </g>
   <g id="legend_1">
    <g id="patch_10">
     <path d="M 246.484283 526.636266 
L 403.206783 526.636266 
Q 404.806783 526.636266 404.806783 525.036266 
L 404.806783 489.834391 
Q 404.806783 488.234391 403.206783 488.234391 
L 246.484283 488.234391 
Q 244.884283 488.234391 244.884283 489.834391 
L 244.884283 525.036266 
Q 244.884283 526.636266 246.484283 526.636266 
z
" style="fill: #ffffff; stroke: #ffffff; stroke-linejoin: miter"/>
    </g>
    <g id="line2d_44">
     <path d="M 248.084283 494.713141 
L 256.084283 494.713141 
L 264.084283 494.713141 
" style="fill: none; stroke: #81a4ae; stroke-width: 1.5; stroke-linecap: square"/>
     <g>
      <use xlink:href="#me04672c988" x="256.084283" y="494.713141" style="fill: #81a4ae; stroke: #81a4ae"/>
     </g>
    </g>
    <g id="text_42">
     <text style="font-size: 8px; font-family: 'DejaVu Sans'; text-anchor: start" x="270.484283" y="497.513141" transform="rotate(-0 270.484283 497.513141)">Static upstream pooling</text>
    </g>
    <g id="line2d_45">
     <path d="M 248.084283 506.713766 
L 256.084283 506.713766 
L 264.084283 506.713766 
" style="fill: none; stroke: #71a48b; stroke-width: 1.5; stroke-linecap: square"/>
     <g>
      <use xlink:href="#md7a7dcb8a2" x="256.084283" y="506.713766" style="fill: #71a48b; stroke: #71a48b"/>
     </g>
    </g>
    <g id="text_43">
     <text style="font-size: 8px; font-family: 'DejaVu Sans'; text-anchor: start" x="270.484283" y="509.513766" transform="rotate(-0 270.484283 509.513766)">Dynamic same-month messages</text>
    </g>
    <g id="line2d_46">
     <path d="M 248.084283 518.714391 
L 256.084283 518.714391 
L 264.084283 518.714391 
" style="fill: none; stroke: #ce7d48; stroke-width: 1.5; stroke-linecap: square"/>
     <g>
      <use xlink:href="#m45e73b9e4c" x="256.084283" y="518.714391" style="fill: #ce7d48; stroke: #ce7d48"/>
     </g>
    </g>
    <g id="text_44">
     <text style="font-size: 8px; font-family: 'DejaVu Sans'; text-anchor: start" x="270.484283" y="521.514391" transform="rotate(-0 270.484283 521.514391)">Dynamic upstream + history</text>
    </g>
   </g>
  </g>
  <g id="axes_4">
   <g id="patch_11">
    <path d="M 602.846783 530.636266 
L 845.085623 530.636266 
L 845.085623 308.937156 
L 602.846783 308.937156 
z
" style="fill: #ffffff"/>
   </g>
   <g id="patch_12">
    <path d="M 613.857639 530.636266 
L 653.074388 530.636266 
L 653.074388 445.550863 
L 613.857639 445.550863 
z
" clip-path="url(#pa70c88b819)" style="fill: #ce7d48"/>
   </g>
   <g id="patch_13">
    <path d="M 674.191099 530.636266 
L 713.407847 530.636266 
L 713.407847 471.13384 
L 674.191099 471.13384 
z
" clip-path="url(#pa70c88b819)" style="fill: #dfa775"/>
   </g>
   <g id="patch_14">
    <path d="M 734.524558 530.636266 
L 773.741307 530.636266 
L 773.741307 486.320757 
L 734.524558 486.320757 
z
" clip-path="url(#pa70c88b819)" style="fill: #ecd0ad"/>
   </g>
   <g id="patch_15">
    <path d="M 794.858018 530.636266 
L 834.074767 530.636266 
L 834.074767 497.840506 
L 794.858018 497.840506 
z
" clip-path="url(#pa70c88b819)" style="fill: #b6bec2"/>
   </g>
   <g id="matplotlib.axis_7">
    <g id="xtick_13">
     <g id="line2d_47">
      <g>
       <use xlink:href="#md6d0932bfb" x="633.466013" y="530.636266" style="stroke: #000000; stroke-width: 0.8"/>
      </g>
     </g>
     <g id="text_45">
      <text style="font-size: 10px; font-family: 'DejaVu Sans'" transform="translate(614.687107 546.234898)">Current</text>
      <text style="font-size: 10px; font-family: 'DejaVu Sans'" transform="translate(617.23867 558.237633)">month</text>
     </g>
    </g>
    <g id="xtick_14">
     <g id="line2d_48">
      <g>
       <use xlink:href="#md6d0932bfb" x="693.799473" y="530.636266" style="stroke: #000000; stroke-width: 0.8"/>
      </g>
     </g>
     <g id="text_46">
      <text style="font-size: 10px; font-family: 'DejaVu Sans'" transform="translate(672.669004 546.23568)">Previous</text>
      <text style="font-size: 10px; font-family: 'DejaVu Sans'" transform="translate(677.572129 558.238414)">month</text>
     </g>
    </g>
    <g id="xtick_15">
     <g id="line2d_49">
      <g>
       <use xlink:href="#md6d0932bfb" x="754.132933" y="530.636266" style="stroke: #000000; stroke-width: 0.8"/>
      </g>
     </g>
     <g id="text_47">
      <text style="font-size: 10px; font-family: 'DejaVu Sans'" transform="translate(730.530589 546.23568)">3 months</text>
      <text style="font-size: 10px; font-family: 'DejaVu Sans'" transform="translate(738.026683 558.238414)">earlier</text>
     </g>
    </g>
    <g id="xtick_16">
     <g id="line2d_50">
      <g>
       <use xlink:href="#md6d0932bfb" x="814.466392" y="530.636266" style="stroke: #000000; stroke-width: 0.8"/>
      </g>
     </g>
     <g id="text_48">
      <text style="font-size: 10px; font-family: 'DejaVu Sans'" transform="translate(802.960142 546.234898)">Zero</text>
      <text style="font-size: 10px; font-family: 'DejaVu Sans'" transform="translate(791.995299 558.236852)">message</text>
     </g>
    </g>
   </g>
   <g id="matplotlib.axis_8">
    <g id="ytick_18">
     <g id="line2d_51">
      <g>
       <use xlink:href="#mb6739b71ff" x="602.846783" y="530.636266" style="stroke: #000000; stroke-width: 0.8"/>
      </g>
     </g>
     <g id="text_49">
      <text style="font-size: 10px; font-family: 'DejaVu Sans'; text-anchor: end" x="595.846783" y="534.435094" transform="rotate(-0 595.846783 534.435094)">0.0</text>
     </g>
    </g>
    <g id="ytick_19">
     <g id="line2d_52">
      <g>
       <use xlink:href="#mb6739b71ff" x="602.846783" y="486.296444" style="stroke: #000000; stroke-width: 0.8"/>
      </g>
     </g>
     <g id="text_50">
      <text style="font-size: 10px; font-family: 'DejaVu Sans'; text-anchor: end" x="595.846783" y="490.095272" transform="rotate(-0 595.846783 490.095272)">0.2</text>
     </g>
    </g>
    <g id="ytick_20">
     <g id="line2d_53">
      <g>
       <use xlink:href="#mb6739b71ff" x="602.846783" y="441.956622" style="stroke: #000000; stroke-width: 0.8"/>
      </g>
     </g>
     <g id="text_51">
      <text style="font-size: 10px; font-family: 'DejaVu Sans'; text-anchor: end" x="595.846783" y="445.75545" transform="rotate(-0 595.846783 445.75545)">0.4</text>
     </g>
    </g>
    <g id="ytick_21">
     <g id="line2d_54">
      <g>
       <use xlink:href="#mb6739b71ff" x="602.846783" y="397.6168" style="stroke: #000000; stroke-width: 0.8"/>
      </g>
     </g>
     <g id="text_52">
      <text style="font-size: 10px; font-family: 'DejaVu Sans'; text-anchor: end" x="595.846783" y="401.415628" transform="rotate(-0 595.846783 401.415628)">0.6</text>
     </g>
    </g>
    <g id="ytick_22">
     <g id="line2d_55">
      <g>
       <use xlink:href="#mb6739b71ff" x="602.846783" y="353.276978" style="stroke: #000000; stroke-width: 0.8"/>
      </g>
     </g>
     <g id="text_53">
      <text style="font-size: 10px; font-family: 'DejaVu Sans'; text-anchor: end" x="595.846783" y="357.075806" transform="rotate(-0 595.846783 357.075806)">0.8</text>
     </g>
    </g>
    <g id="ytick_23">
     <g id="line2d_56">
      <g>
       <use xlink:href="#mb6739b71ff" x="602.846783" y="308.937156" style="stroke: #000000; stroke-width: 0.8"/>
      </g>
     </g>
     <g id="text_54">
      <text style="font-size: 10px; font-family: 'DejaVu Sans'; text-anchor: end" x="595.846783" y="312.735984" transform="rotate(-0 595.846783 312.735984)">1.0</text>
     </g>
    </g>
    <g id="text_55">
     <text style="font-size: 10px; font-family: 'DejaVu Sans'; text-anchor: middle" x="573.541314" y="419.786711" transform="rotate(-90 573.541314 419.786711)">Mean attention mass</text>
    </g>
   </g>
   <g id="patch_16">
    <path d="M 602.846783 530.636266 
L 602.846783 308.937156 
" style="fill: none; stroke: #000000; stroke-width: 0.8; stroke-linejoin: miter; stroke-linecap: square"/>
   </g>
   <g id="patch_17">
    <path d="M 602.846783 530.636266 
L 845.085623 530.636266 
" style="fill: none; stroke: #000000; stroke-width: 0.8; stroke-linejoin: miter; stroke-linecap: square"/>
   </g>
   <g id="text_56">
    <text style="font-size: 9px; font-family: 'DejaVu Sans'; text-anchor: middle" x="633.466013" y="440.008384" transform="rotate(-0 633.466013 440.008384)">0.38</text>
   </g>
   <g id="text_57">
    <text style="font-size: 9px; font-family: 'DejaVu Sans'; text-anchor: middle" x="693.799473" y="465.591361" transform="rotate(-0 693.799473 465.591361)">0.27</text>
   </g>
   <g id="text_58">
    <text style="font-size: 9px; font-family: 'DejaVu Sans'; text-anchor: middle" x="754.132933" y="480.778278" transform="rotate(-0 754.132933 480.778278)">0.20</text>
   </g>
   <g id="text_59">
    <text style="font-size: 9px; font-family: 'DejaVu Sans'; text-anchor: middle" x="814.466392" y="492.298026" transform="rotate(-0 814.466392 492.298026)">0.15</text>
   </g>
   <g id="text_60">
    <text style="font-size: 11px; font-family: 'DejaVu Sans'; text-anchor: start" x="602.846783" y="302.937156" transform="rotate(-0 602.846783 302.937156)">d  Allocation where upstream observations exist</text>
   </g>
  </g>
  <g id="text_61">
   <text style="font-size: 9px; font-family: 'DejaVu Sans'; text-anchor: start; fill: #596166" x="10.543125" y="588.024859" transform="rotate(-0 10.543125 588.024859)">ST357 source-role development · K0 receiving water quality absent · retained complete base frozen</text>
  </g>
 </g>
 <defs>
  <clipPath id="p8db3a00361">
   <rect x="178.103125" y="21.558281" width="230.703658" height="221.699109"/>
  </clipPath>
  <clipPath id="p622ea1c1bd">
   <rect x="602.846783" y="21.558281" width="242.238841" height="221.699109"/>
  </clipPath>
  <clipPath id="p2bea317603">
   <rect x="178.103125" y="308.937156" width="230.703658" height="221.699109"/>
  </clipPath>
  <clipPath id="pa70c88b819">
   <rect x="602.846783" y="308.937156" width="242.238841" height="221.699109"/>
  </clipPath>
 </defs>
</svg>
